
<svg xmlns="http://www.w3.org/2000/svg" version="1.1" xmlns:xlink="http://www.w3.org/1999/xlink" preserveAspectRatio="none" x="0px" y="0px" width="640px" height="480px" viewBox="0 0 640 480">
<defs>
<g id="Layer0_0_FILL">
<path fill="#000000" stroke="none" d="
M 337.5 83.3
L 337.5 83.3 337.85 83.9
Q 338.25 83.85 338.5 83.45 338.54140625 83.3919921875 338.55 83.3 338.7333984375 83.0337890625 338.65 82.7 338.5 81.85 337.5 81.6 336.8 81.45 335.9 81.7 334.5 82.05 332.9 83.05 331.35 84.05 330.5 85.35 329.75 86.55 329.7 88.05 329.65 89.5 330.3 90.75 331 92 332.25 92.8 333.5 93.55 334.9 93.6 336.35 93.6 337.45 92.95 338.8 92.1 339.8 89.8 340.95 87.1 340.75 85.2 340.65 83.7 339.7 83.2 339.45 83 339.05 83.1 338.7888671875 83.1978515625 338.7 83.35 338.6826171875 83.445703125 338.7 83.55 338.7 83.65 338.85 83.95 339.233984375 84.602734375 339.3 85.45 339.446875 86.801953125 338.8 88.65 338.05 90.6 336.9 91.35 335.95 92 334.65 91.95 333.4 91.85 332.5 91.05 331.65 90.25 331.4 89 331.15 87.8 331.6 86.65 332.2 85.35 333.7 84.4 335.4 83.4 337.5 83.3
M 308.25 73.85
Q 308.451953125 73.7880859375 308.65 73.7 309.15 73.6 309.15 73.25 309.2 73 308.85 72.7 307.95 72.05 306.05 72.9 301.65 74.95 300.95 78.1 300.4 80.8 302.4 83.55 303.2 84.6 304 85.05 305.25 85.8 306.85 85.3 308.35 84.85 309.3 83.6 310.85 81.55 310.75 77.85 310.75 76.7 310.4 75.8 310 74.7 308.95 74.4 308.9025390625 74.3728515625 308.85 74.35 308.5662109375 74.2337890625 308.35 74.45 308.15 74.7 308.35 75.05 308.5 75.25 308.85 75.6 309.2294921875 76.0138671875 309.35 76.95 309.4 77.3728515625 309.4 77.9 309.3 80.65 308.6 82 308.1 83 307.15 83.55 306.15 84.15 305.2 83.95 303.6 83.55 302.75 81.35 302.15 79.9 302.35 78.6 302.7 76.75 304.85 75.4 304.92578125 75.362109375 305.5 75.1 306.3328125 74.7298828125 308.25 73.85
M 334.9 108.35
Q 334.7 107.8 334.25 107.5 333.882421875 107.2060546875 333.6 107.3 333.5888671875 107.2583984375 333.55 107.2 333.2 106.6 332.55 106.3 331.65 105.9 329.9 106.1 325.6 106.8 321.95 110.45 318.85 113.5 316.6 118.25 315.45 120.55 314.2 120.2 313.4 120 312.85 118.4 312.7 117.8 311.3 111.2 310.45 106.8 309 104.3 306.75 100.4 303.6 100.45 301.25 100.5 299 103.15 296.8 106.1 295.4 107.3 294.3 108.25 292.95 108.6 291.5 108.95 290.3 108.4 288.9 107.7 287.6 105
L 282.55 94.9
Q 281.4 92.65 280.8 91.65 279.75 89.9 278.55 88.75 277.1 87.4 275.35 86.85 273.45 86.2 271.75 86.75 269.3 87.55 267.45 90.65 263.25 97.5 264 110 264.2 113.35 264.8 120 264.9572265625 122.629296875 264.9 124.9 264.8037109375 124.1982421875 264.6 123.5 264.3 128.9 261.2 133.45 260.65 133 257.1 128.75 254.75 125.9 252.4 125.45 249.55 124.9 246.8 127.1 245 128.55 243 131.8 238.45 139.05 234.25 148.9 231.65 154.9 227.3 166.9 223.6 177 222.4 182.25 221.3 187.45 220.65 193.55 219.7 202.5 219.4 213.75 219.2 220.5 219.15 234.05 219.15 241.3 219.45 244.95 220.4 256.25 226.35 271.3 230.8 282.25 235.35 289.55 243.5 302.75 260.2 317.45 265.5 322.15 270.95 326.55 275.25 330 277.95 331.35 281.85 333.4 289.05 334.8 296.85 336.3 305.85 337 314.95 337.65 320.05 336.15 323.8 335.05 327.7 332.4 330.6 330.45 334.4 327.05 342.05 320.3 347.35 314.05 353.7 306.6 357.55 298.95 364.65 284.75 365.65 265.6 366.05 257.75 365.5 248.4 365.1 241.35 364 231.15 363.3 224.75 363.15 221.55 362.95 212.95 362.85 208.6 362.65 200.85 361.65 195.8 360.5 190.15 356.35 180.25 352 169.75 350.75 164.85 349.9 161.4 349.1 155.65 348.1 148.6 347.7 146.45 346.65 141.1 344.55 134.65 343.25 130.6 340.45 123.15
L 334.9 108.35
M 333.35 108.25
Q 333.37734375 108.36484375 333.4 108.45 334.75 113.15 339.65 125.65 343.8 136.4 345.25 143.05 345.95 146.2 347.05 153.9 348.05 160.85 349 164.7 350.25 169.5 355.15 181.45 359.45 191.9 360.45 198.35 361.15 202.65 361.15 209.15 361.15 212.75 361.15 219.95 361.3 224.1 361.9 229.9 362.25 233.2 363 239.8 363.93671875 248.854296875 363.95 256.9 361.9609375 257.810546875 360.35 259.5 358.3 261.65 357.5 264.4 357.18046875 265.5408203125 356.85 267.8 356.83046875 268.023046875 356.8 268.25 356.2 271.3 354.75 273.55 353.1 276.2 350.6 277.2 349.7640625 277.45078125 349.15 277.65 348.68203125 277.7892578125 348.35 277.9 347 278.35 346.25 278.9 345.683203125 279.3408203125 345.2 280.05 344.9720703125 280.450390625 344.75 280.95 344.45 281.65 343.9 283.4 343.1587890625 285.740625 342 288.35 341.6626953125 289.091796875 341.3 289.85 339.7166015625 293.1001953125 337.75 294.15 337.358203125 294.375 336.95 294.5 335.95 294.8 334.05 294.65 331.9 294.5 331.1 294.6 328.4 294.9 325.65 297.75 324.2 299.3 323.45 300.1 322.15 301.5 321.1 302.25 319.25 303.65 315 305.15
L 315 305.15
Q 317.8578125 306.14453125 321.15 303.85 322.25 303.1 323.6 301.7 323.708203125 301.5845703125 323.8 301.45 324.56640625 300.6765625 325.85 299.35 327.0642578125 298.1357421875 328.2 297.35 329.8595703125 296.303515625 331.4 296.1 332.2 296 334.2 296.1 336 296.2 337 295.95 339.55 295.35 341.55 292.35 343.55 289.4 345.1 284.25 345.6 282.6 346 281.8 346.65 280.55 347.6 279.9 348.25 279.5 349.55 279.15 351 278.8 351.55 278.55 352.5 278.1 353.7 276.8 356.55 273.9 357.4 271.2 357.6 270.6 358.45 265.85 358.6595703125 264.6119140625 359 263.6 359.55234375 262.0095703125 360.45 261.05 360.5708984375 260.9291015625 361.2 260.4 361.8615234375 259.9046875 363.1 258.95 363.192578125 258.8798828125 363.25 258.8 363.666796875 258.504296875 363.95 258.2 363.9732421875 258.5818359375 363.95 258.95 363.9568359375 260.07578125 363.9 261.15 363.7603515625 267.4646484375 363 273.1 360.55 291.15 352 304.35 347.3 311.7 337.55 321.35 332.35 326.5 328.5 329.25 323.1 333.05 317.85 334.25 313.45 335.25 306.45 334.8 299.5 334.35 292.8 333.3 283.7 331.8 278.65 329.15 275.75 327.6 270.65 323.5 258.85 313.9 251.4 306.3 241.6 296.25 235.55 286.1 231.7 279.65 228.1 270.8 226.0962890625 265.8240234375 224.65 261.15 224.2986328125 260.039453125 223.95 258.9 221.7052734375 250.9337890625 221.15 243.95 220.85 240.15 220.95 232.4 221.15 216.15 221.55 205.3 222.2 190.6 224.45 181.7 225.6 177 229 167.8
L 234.45 153.1
Q 237.35 145.4 239.05 141.9 241.65 136.65 245.7 131.1 247 129.35 247.95 128.55 249.4 127.3 250.9 127.2 253.2 127 255.4 129.1 256.1 129.85 257 131.05 257.5 131.75 258.45 133.15 259.75 135.1 261.25 134.95 262.55 134.8 263.45 133.05 263.9224609375 132.2375 264.25 131.35 263.465234375 134.509765625 261.65 135.5 261.95 136.3 263 136.15 264 135.95 264.6 135.2 265.5 134.1 265.85 132.3 266.1 131.2 266.2 129.05 266.35 123.8 266.3 122.75 266.25 120.15 265.8 114.9 265.35 109.7 265.3 107.05 265.1 97.7 268.45 91.85 270.5 88.2 273.25 87.95 276.5 87.65 279.4 92.2 281.05 94.7 283.1 99.05 285.75 104.65 286.55 106.1 288.8 110.1 291.35 110.4 292.95 110.6 294.9 109.4 297.65 107.8 299.4 105.2 299.8 104.7 300.5 103.65 301.2 102.8 301.9 102.4 302.75 101.95 303.85 102.05 304.85 102.15 305.7 102.75 307.25 103.75 308.2 105.85 309.25 108.1 309.9 112.1 310.65 117 311.1 118.55 312 121.3 313.65 121.85 314.65 122.15 315.75 121.7 316.75 121.25 317.45 120.35 318 119.65 318.55 118.45 319.1 117.1 319.4 116.45 321.05 112.95 324.2 110.5 327.3 108.05 331.05 107.3 331.9873046875 107.811328125 333.35 108.25
M 305.7 305.5
Q 307.55 306.45 308.4 306.7 310.1 307.15 311.3 306.5 311.122265625 306.277734375 310.75 306.1 310.3 305.95546875 309.55 305.9 308 305.7 305.3 304.15 302.9 302.8 301.25 301.7 299.4 300.55 298.55 300.25 296.9 299.65 295.1 299.95 293.3 300.2 291.95 301.3 291.85 301.4 290.9 302.25 290.3 302.8 289.8 303.05 288.9 303.45 287.8 303.55 285.5 303.85 283.4 303.1 281.15 302.35 279.85 300.7 278.85 299.35 278.75 299.25 278.05 298.5 277.3 298.35 276.95 298.55 277.35 299.2 279.36484375 302.3197265625 281.4 303.75 282.497265625 304.519921875 283.6 304.8 284.7 305.1 286.5 305.1 288.6 305.2 289.7 304.75 290.65 304.4 291.95 303.3 293.1083984375 302.29609375 293.75 301.85 293.951953125 301.7296875 294.1 301.65 295.8 300.85 297.4 301.2 298.3 301.4 299.9 302.3
L 304.55 304.85 305.7 305.5
M 325 278.95
Q 325.0591796875 278.8357421875 325.1 278.7 325.7421875 277.369921875 325.65 275.85 325.55 274.5 324.85 273.4 324 272.2 322.8 272.05 322.7 271.25 322.05 270.6 321.4 270 320.5 269.8 319.2 269.45 317.15 270.1 315.2 270.75 314.2 271.9 312.75 273.65 313.55 276.15 314.2 278.1 316.1 279.7 317.65 280.95 319.4 281.4 320.9169921875 281.7890625 322.2 281.4 322.555859375 281.277734375 322.9 281.1 324.25 280.45 325 278.95
M 320.8 271.8
Q 320.843359375 271.843359375 320.9 271.9 321.0658203125 272.0947265625 321.35 272.45 321.65 272.9 321.9 273.05 322.3 273.3 323.15 273.5 324.1 274.05 324.2 275.8 324.2 277.5 323.6 278.4 322.9 279.45 321.7 279.75 320.15 280.2 318.55 279.35 317.9349609375 279.0681640625 317.3 278.5 316.9431640625 278.22421875 316.55 277.85 316.316796875 277.5681640625 316.05 277.25 315.25 276.25 315.05 275.35 314.7 274.15 315.3 273.25 315.7 272.55 317.45 271.8 318.4048828125 271.452734375 318.95 271.35 319.0708984375 271.356640625 319.15 271.35 320.1 271.2 320.8 271.8
M 285.95 216.3
Q 285.85 215.4 285.55 214.85 285.25 214.35 284.7 213.95 283.65 213.05 282.3 213.2 280.8 213.35 280.25 214.65 280.05 215.1 280.05 216.1 280.05 218.3 281.05 219.05 281.360546875 219.2650390625 281.9 219.35 282.4884765625 219.5 283.35 219.5 283.4787109375 219.5 283.6 219.5 284.4013671875 219.47421875 284.75 219.3 285.45 218.95 285.8 218 285.95 217.45 285.95 216.3
M 284.15 217.85
L 283.85 217.9 282.25 218 282 217.95 281.8 217.7 281.55 217.05 281.5 216.1
Q 281.5 215.45 281.65 215.2 281.95 214.85 282.5 214.85
L 284.5 215.5
Q 284.45 215.75 284.5 216.6 284.55 217.3 284.35 217.65
L 284.15 217.85
M 270.55 271.9
Q 270.55 271.3 270.25 270.1 269.95 268.7 269.65 268.05 268.85 266.6 267.45 265.75 265.75 264.85 263.7 265.35 261.7 265.85 260.55 267.45 259.45 269.05 259.6 271.1 259.75 273.15 261 274.65 262.7 276.7 265.35 276.7 266.6 276.75 267.75 276.2 268.95 275.6 269.65 274.6 270.55 273.4 270.55 271.9
M 266.5 267.2
Q 266.6369140625 267.2560546875 266.75 267.3 267.680859375 267.7869140625 268.25 268.75 268.95 269.8 268.85 271 268.75 272 268.75 272.2 268.7720703125 272.31015625 268.75 272.4 268.8390625 272.7662109375 268.8 273 268.75 273.3 268.35 273.8 268.241015625 273.9154296875 268.1 274 267.3396484375 274.744921875 266.25 275.05 265 275.4 263.85 275 262.6 274.55 261.8 273.35 261 272.15 261.05 270.65 261.15 269.1 262.1 268.1 262.55234375 267.64765625 263.1 267.35 263.5884765625 267.1169921875 264.15 267 265.4 266.7 266.5 267.2
M 262.9 239.4
Q 262.85 239.95 263.2 240.6 263.4 241.05 263.65 241.25 264.05 241.5 264.75 241.5
L 265.25 241.45 265.9 241.05
Q 266.65 240.4 266.7 239.7 266.75 239.3 266.55 239 266.3 238.6 265.9 238.55
L 265.5 238.45 265.25 238.1
Q 264.95 237.6 264.4 237.7 264.4 237.8 264.25 237.8
L 263.85 238.05
Q 262.95 238.85 262.9 239.4
M 288.75 239.9
Q 287.2 238.4 285.25 238.3 284.15 238.25 283.1 238.6 281.3 239.25 280.15 240.9 278.95 242.55 279 244.4 279 245.65 279.5 247.15 280.2 249.1 281.3 250.2 282.7 251.55 284.85 251.55 286.95 251.6 288.5 250.35 290 249.15 290.65 247.15 291.25 245.2 290.75 243.25 290.25 241.3 288.75 239.9
M 287.2 241
Q 287.786328125 241.209375 288.2 241 288.31875 240.9568359375 288.4 240.9 289.1 242.4 289.45 243.85 289.65 244.75 289.65 245.25 289.6 246.5 288.75 247.85 288.05 248.85 287.55 249.2 286.4 250.1 284.9 249.95 283.35 249.8 282.4 248.7 282.05 248.25 281.7 247.6
L 281 246.05
Q 280.6 244.65 281.1 243.2 281.6 241.8 282.8 240.95 284.45 239.75 286.1 240.45
L 287.2 241
M 244.95 266
Q 244.068359375 265.118359375 243.25 264.75 242.419140625 264.4515625 241.65 264.65 241.330078125 264.8169921875 241.05 264.95 240.3330078125 265.3056640625 239.9 265.45 239.1 265.7 238 265.55 237.5474609375 265.4896484375 237.15 265.4 236.228515625 265.19921875 235.6 264.85 233.8 263.85 232.95 260.9 232.5 259.05 232.25 258.45 231.6 257 230.45 256.75 229.85 256.55 229.25 256.85 228.9419921875 256.9921875 228.75 257.2 228.52890625 257.434375 228.45 257.75
L 229.85 257.75 230.6 257.8
Q 230.7470703125 258.2845703125 230.9 258.75 231.7181640625 261.1625 233 263.85 233.8 265.4 234.55 265.85 235.3 266.45 237.1 266.65 239.3 267.05 240.45 266.6 240.65 266.55 241.3 266.3 241.8 266.1 242.15 266.05 243.5 265.9 244.95 267.75 245.8 268.85 247.25 271.25 247.346875 271.3830078125 247.45 271.5 248.26171875 272.5919921875 249.8 274.35 250.6 275.35 254.5 281.65 254.790625 282.1169921875 255.05 282.55 257.580078125 286.3626953125 260 288.2 261.2 289.15 262.4 289.4 263.6 289.7 266.5 289.2 269.1 288.7 270.45 289.3 270.55 288.55 269.9 288 269.25 287.45 268.4 287.45 267.8 287.45 266.9 287.7 265.75 288.05 265.35 288.1 262.591015625 288.567578125 260 286.4 259.828125 286.2619140625 259.65 286.1 258.65 285.2 257.65 283.75 256.5 282 255.9 281.1 251.9 274.65 246.9 268.25 246.269140625 267.461328125 245.75 266.85 245.3056640625 266.3556640625 244.95 266
M 252.3 104.8
Q 251.8 104.5 251.25 104.5 250.4 104.5 249.2 105.25 246.75 106.95 246.1 108.7 245.65 109.9 245.65 112.45 245.65 114.5 246.15 115.5 246.5 116.2 247 116.45 247.35 116.65 247.9 116.65 249.8 116.85 250.95 116.35 253.25 115.45 253.85 112.7 254.35 110.5 253.35 107.95 252.9 106.85 252.9 106.4
L 252.85 105.65
Q 252.8 105.15 252.3 104.8
M 251.15 107.5
Q 251.45 107.45 251.65 107.5 253.25 110.3 252.05 113.35 251.8 114.25 251.15 114.65 250.65 115 249.45 115.1
L 248.3 115.2
Q 247.9 115.2 247.8 115.15 247.4 115 247.3 114.4 247 113.2 247 112.05 247 109.4 248.25 107.95 248.75 107.3 249.6 106.8 250.45 106.3 251.6 106.05
L 250.35 106.7
Q 249.95 106.9 249.9 107.15 249.9 107.4 250.15 107.55 250.35 107.7 250.65 107.65 250.7 107.65 251.15 107.5
M 278 60.25
Q 276 58.7 274 59.45 273 59.8 271.9 61.1 270.6 62.8 270.2 65 269.75 67.2 270.4 69.25 270.95 70.85 271.8 71.5 272.95 72.35 275.1 72.25 276.1 72.25 276.8 72 277.8 71.65 278.9 70.45 281.05 67.8 280.7 64.15 280.6 63.1 280.35 62.65 280.1 62.25 279.45 61.6 278.35 60.5 278 60.25
M 275.5 60.85
Q 275.95 60.85 276.65 61.15 278.05 61.8 278.3 62.8 278.4 63.25 278.6 63.35 278.95 63.5 279.3 62.9 279.8 65.9 278.6 68.45 277.9 69.75 277.15 70.2 276.55 70.6 275.35 70.8 273.75 71 272.8 70.35 271.4 69.45 271.4 67.1 271.5 63.95 273.6 61.85 274.55 60.8 275.5 60.85 Z"/>

<path fill="#D3B263" stroke="none" d="
M 337.5 83.3
L 337.5 83.3
Q 335.4 83.4 333.7 84.4 332.2 85.35 331.6 86.65 331.15 87.8 331.4 89 331.65 90.25 332.5 91.05 333.4 91.85 334.65 91.95 335.95 92 336.9 91.35 338.05 90.6 338.8 88.65 339.446875 86.801953125 339.3 85.45 339.233984375 84.602734375 338.85 83.95 338.7 83.65 338.7 83.55 338.6826171875 83.445703125 338.7 83.35 338.651171875 83.33984375 338.55 83.3 338.54140625 83.3919921875 338.5 83.45 338.25 83.85 337.85 83.9
L 337.5 83.3
M 302.35 78.6
Q 302.15 79.9 302.75 81.35 303.6 83.55 305.2 83.95 306.15 84.15 307.15 83.55 308.1 83 308.6 82 309.3 80.65 309.4 77.9 309.4 77.3728515625 309.35 76.95 309.2294921875 76.0138671875 308.85 75.6 308.5 75.25 308.35 75.05 308.15 74.7 308.35 74.45 308.5662109375 74.2337890625 308.85 74.35 308.53359375 74.0779296875 308.25 73.85 306.3328125 74.7298828125 305.5 75.1 304.92578125 75.362109375 304.85 75.4 302.7 76.75 302.35 78.6
M 333.4 108.45
Q 333.37734375 108.36484375 333.35 108.25 331.9873046875 107.811328125 331.05 107.3 327.3 108.05 324.2 110.5 321.05 112.95 319.4 116.45 319.1 117.1 318.55 118.45 318 119.65 317.45 120.35 316.75 121.25 315.75 121.7 314.65 122.15 313.65 121.85 312 121.3 311.1 118.55 310.65 117 309.9 112.1 309.25 108.1 308.2 105.85 307.25 103.75 305.7 102.75 304.85 102.15 303.85 102.05 302.75 101.95 301.9 102.4 301.2 102.8 300.5 103.65 299.8 104.7 299.4 105.2 297.65 107.8 294.9 109.4 292.95 110.6 291.35 110.4 288.8 110.1 286.55 106.1 285.75 104.65 283.1 99.05 281.05 94.7 279.4 92.2 276.5 87.65 273.25 87.95 270.5 88.2 268.45 91.85 265.1 97.7 265.3 107.05 265.35 109.7 265.8 114.9 266.25 120.15 266.3 122.75 266.35 123.8 266.2 129.05 266.1 131.2 265.85 132.3 265.5 134.1 264.6 135.2 264 135.95 263 136.15 261.95 136.3 261.65 135.5 263.465234375 134.509765625 264.25 131.35 263.9224609375 132.2375 263.45 133.05 262.55 134.8 261.25 134.95 259.75 135.1 258.45 133.15 257.5 131.75 257 131.05 256.1 129.85 255.4 129.1 253.2 127 250.9 127.2 249.4 127.3 247.95 128.55 247 129.35 245.7 131.1 241.65 136.65 239.05 141.9 237.35 145.4 234.45 153.1
L 229 167.8
Q 225.6 177 224.45 181.7 222.2 190.6 221.55 205.3 221.15 216.15 220.95 232.4 220.85 240.15 221.15 243.95 221.7052734375 250.9337890625 223.95 258.9 224.3208984375 258.202734375 225.15 257.65 226.65 256.65 228.25 257.05 228.50390625 257.1134765625 228.75 257.2 228.9419921875 256.9921875 229.25 256.85 229.85 256.55 230.45 256.75 231.6 257 232.25 258.45 232.5 259.05 232.95 260.9 233.8 263.85 235.6 264.85 236.228515625 265.19921875 237.15 265.4
L 241.05 264.95
Q 241.330078125 264.8169921875 241.65 264.65 242.419140625 264.4515625 243.25 264.75 243.873828125 264.8119140625 244.25 265 245 265.35 245.5 266.3 245.611328125 266.5005859375 245.75 266.85 246.269140625 267.461328125 246.9 268.25 251.9 274.65 255.9 281.1 256.5 282 257.65 283.75 258.65 285.2 259.65 286.1 259.828125 286.2619140625 260 286.4 262.975 288.1166015625 265.45 287.85 265.7 287.85 267.05 287.6 268.05 287.4 268.65 287.45 270.8 287.65 272.25 290 272.75 290.8 273.2 292.05 273.5 292.8 274 294.2 275.85 298.65 279.25 301.9 279.9142578125 302.5642578125 280.05 303.05 280.7115234375 303.460546875 281.4 303.75 279.36484375 302.3197265625 277.35 299.2 276.95 298.55 277.3 298.35 278.05 298.5 278.75 299.25 278.85 299.35 279.85 300.7 281.15 302.35 283.4 303.1 285.5 303.85 287.8 303.55 288.9 303.45 289.8 303.05 290.3 302.8 290.9 302.25 291.85 301.4 291.95 301.3 293.3 300.2 295.1 299.95 296.9 299.65 298.55 300.25 299.4 300.55 301.25 301.7 302.9 302.8 305.3 304.15 308 305.7 309.55 305.9 310.3 305.95546875 310.75 306.1 311.73203125 306.05 312.8 305.8 313.64921875 305.5876953125 315 305.15
L 315 305.15
Q 319.25 303.65 321.1 302.25 322.15 301.5 323.45 300.1 324.2 299.3 325.65 297.75 328.4 294.9 331.1 294.6 331.9 294.5 334.05 294.65 335.95 294.8 336.95 294.5 337.358203125 294.375 337.75 294.15 339.7166015625 293.1001953125 341.3 289.85 341.6626953125 289.091796875 342 288.35 342.4458984375 287.098828125 342.85 285.55 343.45 283.25 343.95 282.15 344.4900390625 280.901171875 345.2 280.05 345.683203125 279.3408203125 346.25 278.9 347 278.35 348.35 277.9 348.68203125 277.7892578125 349.15 277.65 349.8453125 277.3169921875 350.05 277.2 353.45 275.3 356.5 268.6 356.6814453125 268.1951171875 356.85 267.8 357.18046875 265.5408203125 357.5 264.4 358.3 261.65 360.35 259.5 361.9609375 257.810546875 363.95 256.9 363.93671875 248.854296875 363 239.8 362.25 233.2 361.9 229.9 361.3 224.1 361.15 219.95 361.15 212.75 361.15 209.15 361.15 202.65 360.45 198.35 359.45 191.9 355.15 181.45 350.25 169.5 349 164.7 348.05 160.85 347.05 153.9 345.95 146.2 345.25 143.05 343.8 136.4 339.65 125.65 334.75 113.15 333.4 108.45
M 285.25 238.3
Q 287.2 238.4 288.75 239.9 290.25 241.3 290.75 243.25 291.25 245.2 290.65 247.15 290 249.15 288.5 250.35 286.95 251.6 284.85 251.55 282.7 251.55 281.3 250.2 280.2 249.1 279.5 247.15 279 245.65 279 244.4 278.95 242.55 280.15 240.9 281.3 239.25 283.1 238.6 284.15 238.25 285.25 238.3
M 263.2 240.6
Q 262.85 239.95 262.9 239.4 262.95 238.85 263.85 238.05
L 264.25 237.8
Q 264.4 237.8 264.4 237.7 264.95 237.6 265.25 238.1
L 265.5 238.45 265.9 238.55
Q 266.3 238.6 266.55 239 266.75 239.3 266.7 239.7 266.65 240.4 265.9 241.05
L 265.25 241.45 264.75 241.5
Q 264.05 241.5 263.65 241.25 263.4 241.05 263.2 240.6
M 270.25 270.1
Q 270.55 271.3 270.55 271.9 270.55 273.4 269.65 274.6 268.95 275.6 267.75 276.2 266.6 276.75 265.35 276.7 262.7 276.7 261 274.65 259.75 273.15 259.6 271.1 259.45 269.05 260.55 267.45 261.7 265.85 263.7 265.35 265.75 264.85 267.45 265.75 268.85 266.6 269.65 268.05 269.95 268.7 270.25 270.1
M 285.55 214.85
Q 285.85 215.4 285.95 216.3 285.95 217.45 285.8 218 285.45 218.95 284.75 219.3 284.4013671875 219.47421875 283.6 219.5 283.0033203125 219.76328125 282.35 219.6 282.1087890625 219.51484375 281.9 219.35 281.360546875 219.2650390625 281.05 219.05 280.05 218.3 280.05 216.1 280.05 215.1 280.25 214.65 280.8 213.35 282.3 213.2 283.65 213.05 284.7 213.95 285.25 214.35 285.55 214.85
M 325.1 278.7
Q 324.93359375 279.5931640625 324.45 280.3 323.7 281.35 322.65 281.4 322.4603515625 281.4236328125 322.2 281.4 320.9169921875 281.7890625 319.4 281.4 317.65 280.95 316.1 279.7 314.2 278.1 313.55 276.15 312.75 273.65 314.2 271.9 315.2 270.75 317.15 270.1 319.2 269.45 320.5 269.8 321.4 270 322.05 270.6 322.7 271.25 322.8 272.05 324 272.2 324.85 273.4 325.55 274.5 325.65 275.85 325.7421875 277.369921875 325.1 278.7
M 251.65 107.5
Q 251.45 107.45 251.15 107.5 250.7 107.65 250.65 107.65 250.35 107.7 250.15 107.55 249.9 107.4 249.9 107.15 249.95 106.9 250.35 106.7
L 251.6 106.05
Q 250.45 106.3 249.6 106.8 248.75 107.3 248.25 107.95 247 109.4 247 112.05 247 113.2 247.3 114.4 247.4 115 247.8 115.15 247.9 115.2 248.3 115.2
L 249.45 115.1
Q 250.65 115 251.15 114.65 251.8 114.25 252.05 113.35 253.25 110.3 251.65 107.5
M 276.65 61.15
Q 275.95 60.85 275.5 60.85 274.55 60.8 273.6 61.85 271.5 63.95 271.4 67.1 271.4 69.45 272.8 70.35 273.75 71 275.35 70.8 276.55 70.6 277.15 70.2 277.9 69.75 278.6 68.45 279.8 65.9 279.3 62.9 278.95 63.5 278.6 63.35 278.4 63.25 278.3 62.8 278.05 61.8 276.65 61.15 Z"/>

<path fill="#EDEAD5" stroke="none" d="
M 363.5 258.8
Q 363.3998046875 258.7875 363.25 258.8 363.192578125 258.8798828125 363.1 258.95 361.8615234375 259.9046875 361.2 260.4 360.1416015625 261.6603515625 359 263.6 358.6595703125 264.6119140625 358.45 265.85 357.6 270.6 357.4 271.2 356.55 273.9 353.7 276.8 352.5 278.1 351.55 278.55 351 278.8 349.55 279.15 348.25 279.5 347.6 279.9 346.65 280.55 346 281.8 345.6 282.6 345.1 284.25 343.55 289.4 341.55 292.35 339.55 295.35 337 295.95 336 296.2 334.2 296.1 332.2 296 331.4 296.1 329.8595703125 296.303515625 328.2 297.35 326.945703125 298.90390625 326.25 299.55 325.231640625 300.568359375 323.8 301.45 323.708203125 301.5845703125 323.6 301.7 322.25 303.1 321.15 303.85 317.8578125 306.14453125 315 305.15 313.64921875 305.5876953125 312.8 305.8 311.73203125 306.05 310.75 306.1 311.122265625 306.277734375 311.3 306.5 310.1 307.15 308.4 306.7 307.55 306.45 305.7 305.5
L 304.55 304.85
Q 304.38828125 304.7921875 304.2 304.7 301.45 303.3 300.05 302.65 297 301.25 294.85 301.55 294.3466796875 301.6416015625 293.75 301.85 293.1083984375 302.29609375 291.95 303.3 290.65 304.4 289.7 304.75 288.6 305.2 286.5 305.1 284.7 305.1 283.6 304.8 282.497265625 304.519921875 281.4 303.75 280.7115234375 303.460546875 280.05 303.05 279.9142578125 302.5642578125 279.25 301.9 275.85 298.65 274 294.2 273.5 292.8 273.2 292.05 272.75 290.8 272.25 290 270.8 287.65 268.65 287.45 268.05 287.4 267.05 287.6 265.7 287.85 265.45 287.85 262.975 288.1166015625 260 286.4 262.591015625 288.567578125 265.35 288.1 265.75 288.05 266.9 287.7 267.8 287.45 268.4 287.45 269.25 287.45 269.9 288 270.55 288.55 270.45 289.3 269.1 288.7 266.5 289.2 263.6 289.7 262.4 289.4 261.2 289.15 260 288.2 257.580078125 286.3626953125 255.05 282.55 252.72734375 280.285546875 250.8 277.55 248.809375 274.6783203125 247.45 271.5 247.346875 271.3830078125 247.25 271.25 245.8 268.85 244.95 267.75 243.5 265.9 242.15 266.05 241.8 266.1 241.3 266.3 240.65 266.55 240.45 266.6 239.3 267.05 237.1 266.65 235.3 266.45 234.55 265.85 233.8 265.4 233 263.85 231.7181640625 261.1625 230.9 258.75 230.4263671875 258.1857421875 229.85 257.75
L 228.45 257.75
Q 228.52890625 257.434375 228.75 257.2 228.50390625 257.1134765625 228.25 257.05 226.65 256.65 225.15 257.65 224.3208984375 258.202734375 223.95 258.9 224.2986328125 260.039453125 224.65 261.15 226.0962890625 265.8240234375 228.1 270.8 231.7 279.65 235.55 286.1 241.6 296.25 251.4 306.3 258.85 313.9 270.65 323.5 275.75 327.6 278.65 329.15 283.7 331.8 292.8 333.3 299.5 334.35 306.45 334.8 313.45 335.25 317.85 334.25 323.1 333.05 328.5 329.25 332.35 326.5 337.55 321.35 347.3 311.7 352 304.35 360.55 291.15 363 273.1 363.7603515625 267.4646484375 363.9 261.15 363.9568359375 260.07578125 363.95 258.95 363.7712890625 258.8 363.5 258.8
M 342.85 285.55
Q 342.4458984375 287.098828125 342 288.35 343.1587890625 285.740625 343.9 283.4 344.45 281.65 344.75 280.95 344.9720703125 280.450390625 345.2 280.05 344.4900390625 280.901171875 343.95 282.15 343.45 283.25 342.85 285.55
M 356.8 268.25
Q 356.83046875 268.023046875 356.85 267.8 356.6814453125 268.1951171875 356.5 268.6 353.45 275.3 350.05 277.2 349.8453125 277.3169921875 349.15 277.65 349.7640625 277.45078125 350.6 277.2 353.1 276.2 354.75 273.55 356.2 271.3 356.8 268.25
M 320.9 271.9
Q 320.0314453125 271.58125 319 271.45 318.992578125 271.4091796875 318.95 271.35 318.4048828125 271.452734375 317.45 271.8 315.7 272.55 315.3 273.25 314.7 274.15 315.05 275.35 315.25 276.25 316.05 277.25 316.316796875 277.5681640625 316.55 277.85 316.9400390625 278.030078125 317.3 278 317.2890625 278.273828125 317.3 278.5 317.9349609375 279.0681640625 318.55 279.35 320.15 280.2 321.7 279.75 322.9 279.45 323.6 278.4 324.2 277.5 324.2 275.8 324.1 274.05 323.15 273.5 322.3 273.3 321.9 273.05 321.65 272.9 321.35 272.45 321.0658203125 272.0947265625 320.9 271.9
M 324.45 280.3
Q 324.93359375 279.5931640625 325.1 278.7 325.0591796875 278.8357421875 325 278.95 324.25 280.45 322.9 281.1 322.555859375 281.277734375 322.2 281.4 322.4603515625 281.4236328125 322.65 281.4 323.7 281.35 324.45 280.3
M 281.9 219.35
Q 282.1087890625 219.51484375 282.35 219.6 283.0033203125 219.76328125 283.6 219.5 283.4787109375 219.5 283.35 219.5 282.4884765625 219.5 281.9 219.35
M 284.35 217.65
Q 284.55 217.3 284.5 216.6 284.45 215.75 284.5 215.5
L 282.5 214.85
Q 281.95 214.85 281.65 215.2 281.5 215.45 281.5 216.1
L 281.55 217.05 281.8 217.7 282 217.95 282.25 218 283.85 217.9 284.15 217.85 284.35 217.65
M 266.75 267.3
Q 266.2466796875 267.15 265.6 267.15 265.1 267.1 263.25 267.35 263.1751953125 267.35703125 263.1 267.35 262.55234375 267.64765625 262.1 268.1 261.15 269.1 261.05 270.65 261 272.15 261.8 273.35 262.6 274.55 263.85 275 265 275.4 266.25 275.05 267.3396484375 274.744921875 268.1 274 268.59765625 273.269140625 268.75 272.4 268.7720703125 272.31015625 268.75 272.2 268.75 272 268.85 271 268.95 269.8 268.25 268.75 267.680859375 267.7869140625 266.75 267.3
M 288.2 241
Q 287.786328125 241.209375 287.2 241
L 286.1 240.45
Q 284.45 239.75 282.8 240.95 281.6 241.8 281.1 243.2 280.6 244.65 281 246.05
L 281.7 247.6
Q 282.05 248.25 282.4 248.7 283.35 249.8 284.9 249.95 286.4 250.1 287.55 249.2 288.05 248.85 288.75 247.85 288.7748046875 247.77578125 288.8 247.7 289.05 246.9 289.15 245.25 289.25 243.75 289.05 242.7 288.7974609375 241.653515625 288.2 241
M 239.9 265.45
Q 240.3330078125 265.3056640625 241.05 264.95
L 237.15 265.4
Q 237.5474609375 265.4896484375 238 265.55 239.1 265.7 239.9 265.45
M 244.25 265
Q 243.873828125 264.8119140625 243.25 264.75 244.068359375 265.118359375 244.95 266 245.3056640625 266.3556640625 245.75 266.85 245.611328125 266.5005859375 245.5 266.3 245 265.35 244.25 265 Z"/>
</g>
</defs>

<g transform="matrix( 1, 0, 0, 1, 0,0) ">
<use xlink:href="#Layer0_0_FILL"/>
</g>
</svg>
