
<svg xmlns="http://www.w3.org/2000/svg" version="1.1" xmlns:xlink="http://www.w3.org/1999/xlink" preserveAspectRatio="none" x="0px" y="0px" width="640px" height="480px" viewBox="0 0 640 480">
<defs>
<g id="Layer0_0_FILL">
<path fill="#D3B263" stroke="none" d="
M 338.25 75.45
Q 338.2341796875 75.4427734375 338.2 75.4 337.5 74.5 336.5 74.75 335.75 74.95 335.3 75.8 334.9626953125 76.3998046875 334.8 77.05 335.0880859375 76.3125 335.6 75.65 336.15 74.9 336.8 74.85 337.2 74.8 337.5 75.05 337.8 75.35 337.75 75.7 337.7 75.95 337 76.55 336.25 77.2 336 78.55 335.85 79.5 335.95 80.8 336.6 81 337.3 80.5 337.6837890625 80.2015625 338 79.6 338.0484375 79.5103515625 338.1 79.4 338.677734375 78.1724609375 338.6 77.15 338.575 76.761328125 338.45 76.4 338.25 75.95 338.25 75.7 338.25 75.5818359375 338.25 75.45
M 339.55 78.85
Q 339.648828125 78.699609375 339.65 78.5 339.641796875 78.5630859375 339.6 78.6 339.56796875 78.836328125 339.5 79.05 339.472265625 79.1140625 339.45 79.15
L 339.5 79.1
Q 339.55390625 78.9923828125 339.55 78.85
M 338.5 81.75
Q 338.85 81.35 338.9 80.8
L 338.9 80.4
Q 338.394140625 81.4162109375 337.7 81.85 337.2078125 82.1685546875 336.65 82.2 337.12421875 82.3951171875 337.6 82.3 338.1 82.2 338.5 81.75
M 249.8 100.9
Q 249.6 100.9 249.4 101.1 248.9 101.55 248.35 102.55
L 248.25 102.9
Q 248.25 102.95 248.4 103.25 248.6 103.55 248.85 104.2 249.25 104.6 250.3 104.4 250.75 104.3 250.9 104.15
L 251.15 103.8 251.25 103.5 251.15 103.1 250.25 101.4
Q 250 100.9 249.8 100.9
M 306.35 70
L 306.3 70.75 306.35 71.25 306.6 71.9
Q 306.8 72.35 306.9 72.35
L 307.1 72.4 307.5 72.35
Q 307.75 72.35 307.9 72.2
L 308 71.9 308 70.8 307.9 70.55
Q 307.9 70.5 307.65 70.4 307.15 70.3 307.05 70.2 306.7 70 306.6 69.7 306.35 69.6 306.35 70
M 277.05 55.55
Q 276.5 55.15 275.9 55.3 275.85 55.55 275.55 55.85
L 275.3 56.3
Q 274.95 57 274.75 58.6 274.65 59.35 274.85 59.65 275.2 60 276.05 59.9 276.45 59.9 276.65 59.8 277.2 59.55 277.75 58.25 278.05 57.65 278.05 57.35 278.1 57.05 277.8 56.45 277.5 55.95 277.05 55.55
M 332.4 109.75
Q 332.1224609375 109.234765625 332.1 108.95 328.0943359375 108.5056640625 324.25 112.35 323.1 113.55 321.4 115.9 319.5 118.6 318.7 119.55 316.95 121.5 315.65 121.6 313.4 121.85 311.65 119.15 310.6 117.45 309.1 112.9 307.9 109.6 306.4 106.45 305.5 104.75 304.65 104.25 303.25 103.45 300.95 104.3 299.45 104.9 296 107.25 292.85 109.35 290.85 109.75 289.4 110.1 288 109.85 286.45 109.5 285.45 108.55 284.6 107.8 283.55 105.5
L 282.3 102.75
Q 279.972265625 100.1287109375 278.5 96.8 277.15 93.9 276.55 93 275.15 91 273.35 90.8 272.3 90.7 271.25 91.25 270.25 91.75 269.55 92.7 268.5 94.05 267.85 96.75 266.95 100.7 266.7 106.6 266.6 109.9 266.45 116.55 266 126.05 263.25 135.45 262.6 137.5 261.5 137.85 260.3 138.15 258.8 136.65 256.75 134.6 255.3 132 254.2 130.05 253.55 129.3 252.35 128 251 128.15 249.7 128.25 248.15 130.2 239.15 141.5 233.05 155.8 227.35 169.2 224.55 184.45 219.75 210.6 223.35 243.95 224.1318359375 251.612890625 225.35 257.9 225.9384765625 257.3009765625 226.8 256.95 228.15 256.4 229.5 256.75 229.87265625 256.8328125 230.2 256.95 230.112890625 256.8873046875 230 256.8 229.25 256.25 228.8 256.3 228.35 256.45 228.1 256.45 227.65 256.55 227.5 256.3 227.35 255.9 227.7 255.6 228.2 255.05 229.1 255 229.9 255 230.7 255.35 232.4 256.2 233.2 258 233.5 258.7 233.8 260
L 234.35 262.6
Q 234.45 263.15 234.7 263.5
L 235.35 263.85
Q 236.45 264.2 237.7 263.7 238.1 263.55 239 262.9 239.8 262.35 240.35 262.2 240.95 262.05 241.65 262.15 242.2 262.15 242.5 262.25 242.95 262.45 243.4 263 245.75 265.35 246.8 267 247.4 268 247.5 268.65 247.7 269.3 247.55 270.1 246.6 269.4 246 268.35
L 245.25 267
Q 245.1814453125 266.880078125 245 266.7 245.20859375 267.13046875 245.4 267.65 247.05 271.8 250.55 276.15 251.55859375 277.4228515625 253.15 279.15 250.2716796875 275.4677734375 248.2 272 247.75 271.3 248.15 271.05 249.1 271.5 249.95 272.6 250.35 273.05 251.3 274.6 252.6 276.65 255.4 279.7 256.55 281 257.45 281.65 258.2 282.1 259.65 282.6 261.45 283.1 262.35 283.2 263.15 283.3 264.8 283.35 267.8 283.45 269.75 284.25 272.35 285.25 273.4 287.55 273.8 288.4 274.05 289.85 274.35 291.8 274.45 292.2 275 294.25 276.5 295.75 276.9 296.15 277.7 296.9 278.4 297.65 278.75 298.2 279.1 298.85 278.7 299.1 278.4 299.3 277.95 298.85 275.55 296.85 274.6 295.65 273.4138671875 293.9978515625 272.95 292.25 273.0154296875 292.4580078125 273.05 292.7 273.25 294.25 273.6 295.1 274.25 296.6 276.4 298.65 277.1830078125 299.3505859375 277.9 299.85 279.56796875 300.71796875 281.4 301.25 283.1 301.25 283.4 301.35 283.7962890625 301.50859375 284 301.85 286.9427734375 302.3166015625 289.85 301.85 289.892578125 301.7365234375 289.95 301.6 287.6828125 301.9619140625 285.55 301
L 285.7 300.5
Q 288.85 301.2 292 299.8 294.75 298.5 294.9 298.45 297.4 297.65 300.7 299 302.55 299.75 306 301.7 307.2107421875 302.3201171875 308.55 302.8 310.2763671875 303.15 311.65 303.25 313.0099609375 303.339453125 314.2 303.2
L 315.05 302.85
Q 315.5021484375 302.7208984375 315.75 302.9 317.026953125 302.6072265625 318.1 302 319.4 301.3 321.75 299.2 322.11796875 298.8654296875 322.45 298.55 322.43203125 298.559765625 322.4 298.55 325.3 295.15 327.5 294.35 328.5 294 331.1 293.7 333.45 293.45 334.6 292.8 336.4 291.85 338.4 288.45
L 343.65 279.55
Q 345.65 276.25 347.55 275.85 348.25 275.7 349.7 275.7 349.9654296875 275.6525390625 350.2 275.55 350.553515625 275.296484375 350.8 275.05 352.25 273.65 353.3 271.15 354.35 268.15 354.9 266.65 355.8095703125 264.210546875 357.05 261.95 357.64609375 259.7548828125 358.4 258.2 359.15 256.7 360.1 256.15 360.7 255.8 361.4 255.9 361.4357421875 255.90234375 361.45 255.9 362.263671875 254.9859375 363.1 254.8 363.5662109375 254.715234375 364 254.95 363.953125 252.4943359375 363.85 247.65 363.75 242.05 363.45 238.6 363 233.45 361.4 225.55 359.15 214.4 358.85 212.55 357.395703125 204.0662109375 357.15 195.2 356.6037109375 191.6537109375 355.95 189.3 355.35 187.2 354.25 184.3 352.95 181.05 352.3 179.4 350.35 174.4 348.55 167.9 347.55 164.4 345.5 156.15
L 342.75 144.95
Q 341.15 138.8 340.1 133.85 337.75 123.55 337.15 121.45 335.15 114.5 332.4 109.75
M 324.5 266.1
Q 326.4 268.4 326.8 269.85 327.45 271.95 326.3 274.15 325.2 276.3 323.1 277.15 321.05 277.95 318.75 277.4 316.45 276.8 314.9 275.15 313.65 273.75 313.3 271.95 312.9 270.05 313.8 268.6 314.35 267.75 315.8 266.7 316.7 266 318.2 265.1 320.6 263.6 322.25 264.15 323.3 264.5 324.5 266.1
M 286 234.8
Q 287.05 235.1 288.8 236.45 290.05 237.4 290.45 238.25 290.8 238.95 290.7 240.8 290.4 244.2 289.7 245.75 289.15 246.95 288.2 247.75 287.15 248.6 285.95 248.75 284.5 248.9 282.65 247.9 279.3 246.15 278.05 243.1 277.4 241.5 277.65 239.8 277.85 237.95 279 236.75 280.3 235.4 282.7 234.85 284.65 234.4 286 234.8
M 265.35 263.95
Q 265.95 263.9 267.25 264.2 268.8 264.7 269.45 265.35 270.45 266.35 270.65 268.85 270.85 270.5 270.55 271.45 269.85 273.8 266.75 274.55 265.75 274.8 265.15 274.7 263.95 274.55 262.35 273.15 261.35 272.35 261.1 271.75 260.85 271.2 260.85 270.05 260.85 268.35 261.35 267.3 261.7 266.6 262.6 265.7 264.1 264.15 265.35 263.95 Z"/>

<path fill="#000000" stroke="none" d="
M 339.6 78.6
Q 339.641796875 78.5630859375 339.65 78.5 340.075 76.82734375 339.35 75.55 339 74.95 338.6 75.1 338.3251953125 75.1392578125 338.25 75.45 338.25 75.5818359375 338.25 75.7 338.25 75.95 338.45 76.4 338.575 76.761328125 338.6 77.15 338.677734375 78.1724609375 338.1 79.4 338.0484375 79.5103515625 338 79.6 337.6837890625 80.2015625 337.3 80.5 336.6 81 335.95 80.8 335.85 79.5 336 78.55 336.25 77.2 337 76.55 337.7 75.95 337.75 75.7 337.8 75.35 337.5 75.05 337.2 74.8 336.8 74.85 336.15 74.9 335.6 75.65 335.0880859375 76.3125 334.8 77.05 334.5994140625 77.5931640625 334.5 78.15 334.2 79.5 334.6 80.8 334.9 81.55 335.25 81.85 335.45 82.05 335.8 82.15 336.2419921875 82.2552734375 336.65 82.2 337.2078125 82.1685546875 337.7 81.85 338.394140625 81.4162109375 338.9 80.4 338.9771484375 80.2654296875 339.05 80.1 339.287109375 79.62578125 339.45 79.15 339.472265625 79.1140625 339.5 79.05 339.56796875 78.836328125 339.6 78.6
M 251.8 105.05
Q 252.7 104.05 252.55 102.8 252.5 102.35 251.95 101.1 251.1 99.4 250.2 99.25 249 98.9 247.85 100.45
L 247.3 101.35
Q 246.9 102.25 246.95 102.75
L 247.15 103.5
Q 247.75 105.2 248.7 105.55 249.05 105.75 249.9 105.75 250.35 105.85 250.8 105.75 251.4 105.6 251.8 105.05
M 249.4 101.1
Q 249.6 100.9 249.8 100.9 250 100.9 250.25 101.4
L 251.15 103.1 251.25 103.5 251.15 103.8 250.9 104.15
Q 250.75 104.3 250.3 104.4 249.25 104.6 248.85 104.2 248.6 103.55 248.4 103.25 248.25 102.95 248.25 102.9
L 248.35 102.55
Q 248.9 101.55 249.4 101.1
M 308.5 67.75
Q 308.2 67.65 307.8 67.9 307.25 68.2 307.05 68.2 306.4 68.05 306.05 68.1 305.65 68.2 305.3 68.75 304.8 69.65 304.9 70.85 305 71.95 305.6 72.85 305.85 73.3 306.4 73.65 306.85 73.9 307.9 73.9 308.45 73.9 308.7 73.8 309.1 73.55 309.25 73.2 309.6 72.5 309.6 71.25 309.7 70.3 309.5 69.65
L 309.1 68.7
Q 308.9 67.9 308.5 67.75
M 306.3 70.75
L 306.35 70
Q 306.35 69.6 306.6 69.7 306.7 70 307.05 70.2 307.15 70.3 307.65 70.4 307.9 70.5 307.9 70.55
L 308 70.8 308 71.9 307.9 72.2
Q 307.75 72.35 307.5 72.35
L 307.1 72.4 306.9 72.35
Q 306.8 72.35 306.6 71.9
L 306.35 71.25 306.3 70.75
M 276.95 53.2
Q 276.25 53 275.4 53.65 273.45 55.05 273.25 58.2 273.15 59.9 273.9 60.75 274.25 61.2 274.8 61.35
L 276.05 61.4 276.8 61.35
Q 277.75 61.1 278.65 59.55 279.65 57.95 279.5 56.95 279.4 56.45 279 55.85 278.5 55.25 278.3 54.9 277.8 53.95 277.75 53.9 277.4 53.35 276.95 53.2
M 275.9 55.3
Q 276.5 55.15 277.05 55.55 277.5 55.95 277.8 56.45 278.1 57.05 278.05 57.35 278.05 57.65 277.75 58.25 277.2 59.55 276.65 59.8 276.45 59.9 276.05 59.9 275.2 60 274.85 59.65 274.65 59.35 274.75 58.6 274.95 57 275.3 56.3
L 275.55 55.85
Q 275.85 55.55 275.9 55.3
M 335.4 110.2
Q 335.6 109.5 334.95 108.65 333.55 106.9 330.55 107.2 324.8 107.7 319.95 114.95 317.9 118.05 316.8 119 316 119.7 315.35 119.7 314.75 119.7 313.95 119 312.75 117.9 311.95 116.05 311.55 115.25 310.65 112.6 309.6 109.4 308 106 306.8 103.3 305.35 102.45 303.7 101.5 301 102.15 299.05 102.6 297.25 103.75 295.1 105.4 293.95 106.15 292 107.35 289.85 107.7 287.9 108 286.9 107.35 286.05 106.9 285.15 105.1
L 283.55 101.85
Q 283.3046875 101.23671875 282.9 101.1
L 279.5 94.75
Q 278.2 92.3 277.1 91.1 275.45 89.3 273.55 89.1 271.2 88.8 269.15 90.85 267.4 92.65 266.55 95.35 265.55 98.45 265.3 102.75 265.2 104 265.15 110.3 264.9 122.7 262.15 134.7 261.95 135.95 261.2 136.15 260.6 136.3 259.85 135.65 258.8 134.75 257.8 133 256.8 131 256.2 130.05 253.95 126.2 250.95 126.4 248.7 126.55 246.2 129.9 237.25 141.75 231.3 155.6 225.4 169.4 222.9 184.1 221.75 191.05 220.95 201.6 219.25 225.1 221.2 243.05 223.6 265.35 231.8 282.55 236 291.35 241.8 299.1 244.1 302.25 250.15 309.35 254.45 314.5 257.5 317.2 261.4 320.7 270.05 325.6 277.35 329.7 281.25 331.25 287.3 333.7 295.7 334.95 305.85 336.4 313.8 335.4 323.4 334.15 332.5 329.05 341.1 324.25 348.15 316.7 357.05 307.25 361.9 295.25 366.9 282.95 366.65 270.35 366.2 263.4 366 259.9 365.85 257.2 365.8 249.55 365.75 243.1 365.4 239.25 364.9 233.4 362.5 221.65 360.1 210.05 359.6 204.05 359.25 196.8 358.9 193.15 358.8 192.2 358.35 191.55 358.0521484375 191.0734375 357.65 190.95 357.2654296875 189.1919921875 356.65 187.3 355.9 184.9 354.15 180.45 352.35 175.8 351.65 173.55 350.6 170.35 348.95 163.35 343.7 141.2 343.15 138.9 339.8 125 337 114.55 336.35 112.35 335.8 111.2 335.577734375 110.76796875 335.3 110.4 335.37421875 110.303515625 335.4 110.2
M 332.1 108.95
Q 332.1224609375 109.234765625 332.4 109.75 335.15 114.5 337.15 121.45 337.75 123.55 340.1 133.85 341.15 138.8 342.75 144.95
L 345.5 156.15
Q 347.55 164.4 348.55 167.9 350.35 174.4 352.3 179.4 352.95 181.05 354.25 184.3 355.35 187.2 355.95 189.3 356.6037109375 191.6537109375 357.15 195.2 357.395703125 204.0662109375 358.85 212.55 359.15 214.4 361.4 225.55 363 233.45 363.45 238.6 363.75 242.05 363.85 247.65 363.953125 252.4943359375 364 254.95 364.06875 256.07421875 364.1 256.7 364.1017578125 256.7556640625 364.1 256.8 364.164453125 258.438671875 364.55 263.5 364.8 267.7 364.85 270.3 365 287.45 355.9 303.05 346.85 318.55 331.8 327 325.15 330.65 318.8 332.25 302.35 336.5 282.35 329.1 275.7 326.7 270.35 323.6 249.7 311.85 235.25 285.05 230.45 276.05 228 268.35 226.730859375 264.4421875 225.7 259.7 225.530859375 258.841015625 225.35 257.9 224.1318359375 251.612890625 223.35 243.95 219.75 210.6 224.55 184.45 227.35 169.2 233.05 155.8 239.15 141.5 248.15 130.2 249.7 128.25 251 128.15 252.35 128 253.55 129.3 254.2 130.05 255.3 132 256.75 134.6 258.8 136.65 260.3 138.15 261.5 137.85 262.6 137.5 263.25 135.45 266 126.05 266.45 116.55 266.6 109.9 266.7 106.6 266.95 100.7 267.85 96.75 268.5 94.05 269.55 92.7 270.25 91.75 271.25 91.25 272.3 90.7 273.35 90.8 275.15 91 276.55 93 277.15 93.9 278.5 96.8 279.972265625 100.1287109375 282.3 102.75
L 283.55 105.5
Q 284.6 107.8 285.45 108.55 286.45 109.5 288 109.85 289.4 110.1 290.85 109.75 292.85 109.35 296 107.25 299.45 104.9 300.95 104.3 303.25 103.45 304.65 104.25 305.5 104.75 306.4 106.45 307.9 109.6 309.1 112.9 310.6 117.45 311.65 119.15 313.4 121.85 315.65 121.6 316.95 121.5 318.7 119.55 319.5 118.6 321.4 115.9 323.1 113.55 324.25 112.35 328.0943359375 108.5056640625 332.1 108.95
M 361.4 255.9
Q 360.7 255.8 360.1 256.15 359.15 256.7 358.4 258.2 357.64609375 259.7548828125 357.05 261.95 357.0345703125 262.11171875 357 262.25 356.6 263.6 356 266.4 354.8 271.6 352.4 274.05 351.346484375 275.1845703125 350.2 275.55 349.9654296875 275.6525390625 349.7 275.7 348.25 275.7 347.55 275.85 345.65 276.25 343.65 279.55
L 338.4 288.45
Q 336.4 291.85 334.6 292.8 333.45 293.45 331.1 293.7 328.5 294 327.5 294.35 325.3 295.15 322.4 298.55 322.43203125 298.559765625 322.45 298.55 323.09921875 298.7130859375 324.05 298 324.7 297.5 326 296.5 326.3126953125 296.27265625 326.6 296.05 327.369921875 295.61484375 328.05 295.4 328.95 295.05 330.9 294.9 332.2220703125 294.7982421875 333.05 294.6 333.426171875 294.5466796875 333.7 294.45 336.4 293.6 339.2 289.4 341.8 285.5 343.65 282 344.8 279.85 345.5 278.95 345.775 278.619921875 346.05 278.35 346.8458984375 277.5951171875 347.7 277.25 347.983984375 277.162109375 348.25 277.1 348.6 277 349.45 276.9 350.15 276.85 350.55 276.7 351.65 276.4 353.05 274.8 354.26484375 273.3552734375 355.1 272 355.523828125 271.2865234375 355.85 270.6 356.5078125 269.1611328125 357 266.85 357.143359375 266.3423828125 357.25 265.8 358 262 358.3 260.95 359.05 258.8 360.05 257.75 361.05 256.75 362.55 256.5 362.1689453125 255.976171875 361.45 255.9 361.4357421875 255.90234375 361.4 255.9
M 315.75 302.9
Q 315.5021484375 302.7208984375 315.05 302.85
L 314.2 303.2 314 303.3
Q 313.3 303.7 312.45 303.7 311.55 303.7 310.55 303.4 309.5263671875 303.1337890625 308.55 302.8 307.2107421875 302.3201171875 306 301.7 302.55 299.75 300.7 299 297.4 297.65 294.9 298.45 294.75 298.5 292 299.8 288.85 301.2 285.7 300.5
L 285.55 301
Q 287.6828125 301.9619140625 289.95 301.6 290.4 301.564453125 290.85 301.45 291.25 301.35 294 300.2 294.3466796875 300.0578125 294.65 299.95 296.1810546875 299.408984375 297.25 299.45 298.5 299.45 300.7 300.45 301.2173828125 300.70859375 301.65 300.95 303.7494140625 301.9884765625 304.85 302.6
L 306.5 303.4
Q 307.95 304.05 310.2 304.6 312.1 305.1 313.05 305 314.9 304.75 316 303.25 315.9115234375 303.0375 315.75 302.9
M 267.25 264.2
Q 265.95 263.9 265.35 263.95 264.1 264.15 262.6 265.7 261.7 266.6 261.35 267.3 260.85 268.35 260.85 270.05 260.85 271.2 261.1 271.75 261.35 272.35 262.35 273.15 263.95 274.55 265.15 274.7 265.75 274.8 266.75 274.55 269.85 273.8 270.55 271.45 270.85 270.5 270.65 268.85 270.45 266.35 269.45 265.35 268.8 264.7 267.25 264.2
M 268.25 266.65
Q 268.27421875 266.6591796875 268.3 266.65 268.6560546875 266.8060546875 268.75 266.9 268.8 266.95 268.9 267.25 269.173828125 268.2080078125 269.25 269 269.4044921875 270.2083984375 269.1 271 268.75 271.95 267.75 272.55 266.8 273.1 265.7 273.15 265.05 273.15 264.5 272.95 264 272.75 263.3 272.05 262.6 271.35 262.45 270.9 261.9 269.75 262.65 268.2 263.25 266.8 264.45 266.1 265.95 265.3 267.2 266.05
L 268.25 266.65
M 288.8 236.45
Q 287.05 235.1 286 234.8 284.65 234.4 282.7 234.85 280.3 235.4 279 236.75 277.85 237.95 277.65 239.8 277.4 241.5 278.05 243.1 279.3 246.15 282.65 247.9 284.5 248.9 285.95 248.75 287.15 248.6 288.2 247.75 289.15 246.95 289.7 245.75 290.4 244.2 290.7 240.8 290.8 238.95 290.45 238.25 290.05 237.4 288.8 236.45
M 289.05 238.85
Q 289.3623046875 239.4052734375 289.35 240.3 289.3611328125 240.6912109375 289.3 241.15 289.1 243 288.45 244.8 287.9404296875 246.11640625 287.3 246.65 287.2130859375 246.7322265625 287.1 246.8 286.1841796875 247.4 284.85 247 284.1025390625 246.7708984375 283.2 246.2 281.45 245.15 280.45 243.95 279.15 242.4 279.15 240.6 279.2 239.15 280.2 238 280.4759765625 237.6689453125 280.75 237.4 281.586328125 236.7447265625 282.6 236.6 282.85 236.5552734375 283.15 236.55 284.5 236.5375 286.8 237.4 287.523046875 237.6478515625 288 237.95 288.756640625 238.351171875 289.05 238.85
M 326.8 269.85
Q 326.4 268.4 324.5 266.1 323.3 264.5 322.25 264.15 320.6 263.6 318.2 265.1 316.7 266 315.8 266.7 314.35 267.75 313.8 268.6 312.9 270.05 313.3 271.95 313.65 273.75 314.9 275.15 316.45 276.8 318.75 277.4 321.05 277.95 323.1 277.15 325.2 276.3 326.3 274.15 327.45 271.95 326.8 269.85
M 324 267.85
Q 324.349609375 268.4685546875 324.65 269.15 324.9458984375 269.726171875 325.2 270.35 325.5021484375 270.9541015625 325.55 271.35 325.6 271.48984375 325.6 271.6 325.6 271.8 325.35 272.8 324.89296875 274.0189453125 324.4 274.7 324.08203125 275.13515625 323.75 275.35 323.1 275.75 321.9 275.85 320.45 276.05 319.6 276 318.3 275.9 317.45 275.35 316.6 274.85 315.7 273.45 314.7 271.95 314.75 271 314.75 269.85 315.8 268.9 316.4 268.35 317.8 267.55
L 320.9 265.9 321.25 265.75
Q 321.15 265.85 321.2 266 321.25 266.2 321.4 266.25
L 321.8 266.25 322 266.3
Q 323.15 266.3 324 267.85
M 248.15 271.05
Q 247.75 271.3 248.2 272 250.2716796875 275.4677734375 253.15 279.15 253.472265625 279.587890625 253.8 280 255.1939453125 281.73046875 256.4 282.6 256.4517578125 282.665234375 256.5 282.7 258.6 284.25 261.85 284.6 262.1958984375 284.6431640625 263.75 284.65 264.0228515625 284.6931640625 264.3 284.7 265.8 284.75 266.75 284.95 267.853515625 285.133984375 269.2 285.75 269.3294921875 285.79375 269.45 285.85 271 286.55 271.6 287.3 272.2 288 272.45 289.35 272.603125 289.9244140625 272.75 290.95 272.803125 291.2490234375 272.85 291.6 272.903515625 291.920703125 272.95 292.25 273.4138671875 293.9978515625 274.6 295.65 275.55 296.85 277.95 298.85 278.4 299.3 278.7 299.1 279.1 298.85 278.75 298.2 278.4 297.65 277.7 296.9 276.9 296.15 276.5 295.75 275 294.25 274.45 292.2 274.35 291.8 274.05 289.85 273.8 288.4 273.4 287.55 272.35 285.25 269.75 284.25 267.8 283.45 264.8 283.35 263.15 283.3 262.35 283.2 261.45 283.1 259.65 282.6 258.2 282.1 257.45 281.65 256.55 281 255.4 279.7 252.6 276.65 251.3 274.6 250.35 273.05 249.95 272.6 249.1 271.5 248.15 271.05
M 245 266.7
Q 245.1814453125 266.880078125 245.25 267
L 246 268.35
Q 246.6 269.4 247.55 270.1 247.7 269.3 247.5 268.65 247.4 268 246.8 267 245.75 265.35 243.4 263 242.95 262.45 242.5 262.25 242.2 262.15 241.65 262.15 240.95 262.05 240.35 262.2 239.8 262.35 239 262.9 238.1 263.55 237.7 263.7 236.45 264.2 235.35 263.85
L 234.7 263.5
Q 234.45 263.15 234.35 262.6
L 233.8 260
Q 233.5 258.7 233.2 258 232.4 256.2 230.7 255.35 229.9 255 229.1 255 228.2 255.05 227.7 255.6 227.35 255.9 227.5 256.3 227.65 256.55 228.1 256.45 228.35 256.45 228.8 256.3 229.25 256.25 230 256.8 230.112890625 256.8873046875 230.2 256.95 231.14609375 257.721875 231.55 258.35 231.8 258.75 232.15 260.15
L 232.7 262.75
Q 232.9 263.65 233.1 264.05 233.65 264.8 234.75 265.15 236.8 265.85 238.4 265.1 239.5 264.35 240.1 264 241.2 263.4 242 263.8 242.35 263.95 242.7 264.3
L 244.1 265.7
Q 244.72421875 266.32421875 245 266.7 Z"/>

<path fill="#EDEAD5" stroke="none" d="
M 364.1 256.7
Q 364.06875 256.07421875 364 254.95 363.5662109375 254.715234375 363.1 254.8 362.263671875 254.9859375 361.45 255.9 362.1689453125 255.976171875 362.55 256.5 361.05 256.75 360.05 257.75 359.05 258.8 358.3 260.95 358 262 357.25 265.8 357.143359375 266.3423828125 357 266.85 356.5078125 269.1611328125 355.85 270.6 355.523828125 271.2865234375 355.1 272 354.26484375 273.3552734375 353.05 274.8 351.65 276.4 350.55 276.7 350.15 276.85 349.45 276.9 348.6 277 348.25 277.1 347.983984375 277.162109375 347.7 277.25 346.8458984375 277.5951171875 346.05 278.35 345.775 278.619921875 345.5 278.95 344.8 279.85 343.65 282 341.8 285.5 339.2 289.4 336.4 293.6 333.7 294.45 333.426171875 294.5466796875 333.05 294.6 331.7849609375 295.11796875 329.45 295.5 327.7435546875 295.77421875 326.6 296.05 326.3126953125 296.27265625 326 296.5 324.7 297.5 324.05 298 323.09921875 298.7130859375 322.45 298.55 322.11796875 298.8654296875 321.75 299.2 319.4 301.3 318.1 302 317.026953125 302.6072265625 315.75 302.9 315.9115234375 303.0375 316 303.25 314.9 304.75 313.05 305 312.1 305.1 310.2 304.6 307.95 304.05 306.5 303.4
L 304.85 302.6
Q 303.7494140625 301.9884765625 301.65 300.95 299.4021484375 300.3359375 298.1 300.15 296.276953125 299.862109375 294.65 299.95 294.3466796875 300.0578125 294 300.2 291.25 301.35 290.85 301.45 290.4 301.564453125 289.95 301.6 289.892578125 301.7365234375 289.85 301.85 286.9427734375 302.3166015625 284 301.85 283.7962890625 301.50859375 283.4 301.35 283.1 301.25 281.4 301.25 279.56796875 300.71796875 277.9 299.85 277.1830078125 299.3505859375 276.4 298.65 274.25 296.6 273.6 295.1 273.25 294.25 273.05 292.7 273.0154296875 292.4580078125 272.95 292.25 272.903515625 291.920703125 272.85 291.6 272.803125 291.2490234375 272.75 290.95 272.6748046875 290.5427734375 272.6 290.3 271.9 287.5 269.3 285.8 269.25546875 285.769921875 269.2 285.75 267.853515625 285.133984375 266.75 284.95 265.8 284.75 264.3 284.7 264.0228515625 284.6931640625 263.75 284.65 262.517578125 285.05703125 261.85 285.2 260.65 285.5 259.8 285.3 258.8 285.05 257.3 283.55 256.8390625 283.0791015625 256.4 282.6 255.1939453125 281.73046875 253.8 280 253.472265625 279.587890625 253.15 279.15 251.55859375 277.4228515625 250.55 276.15 247.05 271.8 245.4 267.65 245.20859375 267.13046875 245 266.7 244.72421875 266.32421875 244.1 265.7
L 242.7 264.3
Q 242.35 263.95 242 263.8 241.2 263.4 240.1 264 239.5 264.35 238.4 265.1 236.8 265.85 234.75 265.15 233.65 264.8 233.1 264.05 232.9 263.65 232.7 262.75
L 232.15 260.15
Q 231.8 258.75 231.55 258.35 231.14609375 257.721875 230.2 256.95 229.87265625 256.8328125 229.5 256.75 228.15 256.4 226.8 256.95 225.9384765625 257.3009765625 225.35 257.9 225.530859375 258.841015625 225.7 259.7 226.730859375 264.4421875 228 268.35 230.45 276.05 235.25 285.05 249.7 311.85 270.35 323.6 275.7 326.7 282.35 329.1 302.35 336.5 318.8 332.25 325.15 330.65 331.8 327 346.85 318.55 355.9 303.05 365 287.45 364.85 270.3 364.8 267.7 364.55 263.5 364.164453125 258.438671875 364.1 256.8 364.1017578125 256.7556640625 364.1 256.7
M 314 303.3
L 314.2 303.2
Q 313.0099609375 303.339453125 311.65 303.25 310.2763671875 303.15 308.55 302.8 309.5263671875 303.1337890625 310.55 303.4 311.55 303.7 312.45 303.7 313.3 303.7 314 303.3
M 357 262.25
Q 357.0345703125 262.11171875 357.05 261.95 355.8095703125 264.210546875 354.9 266.65 354.35 268.15 353.3 271.15 352.25 273.65 350.8 275.05 350.553515625 275.296484375 350.2 275.55 351.346484375 275.1845703125 352.4 274.05 354.8 271.6 356 266.4 356.6 263.6 357 262.25
M 268.3 266.65
Q 268.27421875 266.6591796875 268.25 266.65
L 267.2 266.05
Q 265.95 265.3 264.45 266.1 263.25 266.8 262.65 268.2 261.9 269.75 262.45 270.9 262.6 271.35 263.3 272.05 264 272.75 264.5 272.95 265.05 273.15 265.7 273.15 266.8 273.1 267.75 272.55 268.75 271.95 269.1 271 269.4044921875 270.2083984375 269.25 269 269.1369140625 268.379296875 268.85 267.7 268.594140625 267.1201171875 268.3 266.65
M 289.35 240.3
Q 289.232421875 239.926953125 289.05 239.55 288.5802734375 238.5744140625 288 237.95 287.523046875 237.6478515625 286.8 237.4 284.5 236.5375 283.15 236.55 282.1646484375 236.8173828125 280.75 237.4 280.4759765625 237.6689453125 280.2 238 279.2 239.15 279.15 240.6 279.15 242.4 280.45 243.95 281.45 245.15 283.2 246.2 284.1025390625 246.7708984375 284.85 247 286.397265625 247.0578125 287.3 246.65 287.9404296875 246.11640625 288.45 244.8 289.1 243 289.3 241.15 289.3611328125 240.6912109375 289.35 240.3
M 325.2 270.35
Q 324.9458984375 269.726171875 324.65 269.15 324.187109375 268.43046875 323.45 267.65 322.46875 266.66875 321.8 266.25
L 321.4 266.25
Q 321.25 266.2 321.2 266 321.059375 265.956640625 320.9 265.9
L 317.8 267.55
Q 316.4 268.35 315.8 268.9 314.75 269.85 314.75 271 314.7 271.95 315.7 273.45 316.6 274.85 317.45 275.35 318.3 275.9 319.6 276 320.45 276.05 321.9 275.85 323.1 275.75 323.75 275.35 324.08203125 275.13515625 324.4 274.7 324.89296875 274.0189453125 325.35 272.8 325.6 271.8 325.6 271.6 325.6 271.48984375 325.55 271.35 325.5021484375 270.9541015625 325.2 270.35 Z"/>
</g>
</defs>

<g transform="matrix( 1, 0, 0, 1, 0,0) ">
<use xlink:href="#Layer0_0_FILL"/>
</g>
</svg>
