
<svg xmlns="http://www.w3.org/2000/svg" version="1.1" xmlns:xlink="http://www.w3.org/1999/xlink" preserveAspectRatio="none" x="0px" y="0px" width="640px" height="480px" viewBox="0 0 640 480">
<defs>
<g id="Layer0_0_FILL">
<path fill="#000000" stroke="none" d="
M 338.55 106.6
Q 337.15 103.05 335 101.75 332.85 100.45 329.7 101.05 326.8 101.65 324.2 103.7 321.85 105.65 320.2 108.45 318.8 110.8 317.7 114.1 317.05 116 316 120.05
L 311.95 105.85
Q 310.55 101 309.05 98.8 307.9 97.15 306.3 96.15 304.55 95.05 302.75 95.1 300.8 95.15 299 96.45 297.4 97.65 296.3 99.5 295.4 101 294.65 103.2 294.2 104.5 293.4 107.1 292.75 108.8 291.85 108.95 290.45 109.25 289.55 106.85
L 281.8 87.35
Q 280.95 85.2 280.45 84.25 279.55 82.55 278.5 81.45 277.25 80.2 275.6 79.7 273.85 79.15 272.35 79.8 270.2 80.65 268.65 84.2 264.85 92.8 264.15 104 263.6 112.55 264.9 124.6 265.2 127.15 265.25 128.45 265.25 130.6 264.8 132.25 264.6 133 264.15 133.15 263.6 133.35 262.9 132.55
L 256.85 125.9
Q 255.35 124.3 254.5 123.6 253.05 122.45 251.65 122.15 249.85 121.75 247.95 122.6 246.2 123.4 244.95 124.95 243.25 126.95 241.65 131.8 240.2 136.15 237.3 144.85 234.7 152.5 232.65 157.8 232.3 158.75 228.1 169.1 225.35 175.9 223.8 180.45 221.4 187.35 217.75 201.95 215.75 210.1 215.4 213.7 215.05 217.35 215.35 224.65 215.7 232 216.15 237.75 216.8 246.95 217.95 252 219.8 260 224.5 268.6 228.1 275.15 234.3 283.65 239.45 290.65 244.55 296.85 250.55 304.2 255.8 309.25 256.35 309.75 259.95 313.05 262.45 315.4 263.95 317 264.95 318.1 266.9 320.35 268.7 322.35 270.05 323.55 272.8 326 276.9 328.1 279.55 329.45 284.5 331.45 291.75 334.45 295.95 335.3 304.5 337.05 315.25 334.3 326.05 331.6 333.85 326.05 340.3 321.55 346 314 353.9 303.55 359.2 288.8 363.25 277.55 366.55 261.05 368.3 252.25 368.6 246.75 368.85 241.95 368.45 236.05 367.1 213.55 360.8 187.65 355.95 167.7 346.7 140.55 344.55 134.05 343.9 132 342.45 127.1 341.75 123.25 340.95 117.6 340.55 114.8 339.8 109.85 338.55 106.6
M 335.2 104.95
Q 336.35 106.25 337 108.1 337.75 110.15 338.05 113.15 338.25 114.85 338.5 118.3 338.95 123.15 340.65 129.15 341.5 132.15 344.05 139.65 353.1 166.05 358.1 186.05 364.4 211.45 366.1 233.7 366.55 240 366.45 243.9 366.2001953125 251.6921875 363.65 263.55
L 363.65 263.6
Q 363.2421875 265.5486328125 362.8 267.4 361.001171875 275.700390625 359.2 281.8 356.35 291.5 352.6 299.2 343.35 318.2 328.3 326.9 318.7 332.45 307.25 333.25 295.8 334.05 285.55 329.9 279.65 327.55 274.4 323.6 270.55 320.75 263.75 314.05 257.45 307.85 254.4 304.65 240.45 289.95 229.85 273 226.755078125 268.0685546875 224.75 264 224.08828125 262.6556640625 223.55 261.4 223.31171875 260.8697265625 223.1 260.35 220.35 253.5 219.1 244.3 218.35 238.65 217.8 227.65 217.3 218.95 217.8 214.2 218.2 210.15 220.2 202.25 223.25 189.95 225.1 184.15 226.55 179.6 229 173.4 231.85 166.35 233.25 162.8 239.2 147.75 244.05 132.2 245.2 128.6 246.25 127.2 247.15 126 248.3 125.35 249.65 124.6 250.95 124.75 252.35 124.85 253.75 125.95 254.6 126.65 255.95 128.25
L 260.55 133.65
Q 262.8 136.3 264.65 135.9 266.6 135.5 267.2 132.4 267.7 129.9 267.55 126.55 267.5 125.55 267 120.6 265 101.5 270.05 86.35 270.75 84.35 271.75 83.2 273.05 81.65 274.6 81.8 276.2 82 277.75 84.1 280.65 88 283.15 95.25 286.55 104.95 287.5 107 288.5 109.2 289.75 110.15 290.55 110.8 291.5 110.9 292.55 111.05 293.35 110.55 294.25 109.95 294.95 108.15
L 297.3 102.55
Q 299.2 97.9 301.75 97.3 304.1 96.75 306.1 98.7 307.55 100.1 308.7 102.65 311.55 108.7 312.6 115.45 313.2 118.9 313.7 119.95 315 122.55 317.25 122.6 318.3 122.6 318.45 121.95 318.5 121.6 318.25 121.2 317.8 120.5 317.8 120.45 317.65 119.95 317.9 119.35 318 119.2 318.5 118.35 319.45 116.85 320.45 113.35 321.45 109.9 322.5 108.4 323.9 106.4 327.45 104.5 330.25 102.95 332.15 103.25 333.85 103.5 335.2 104.95
M 246.85 271.85
Q 246.349609375 271.21171875 245.85 270.75 244.96875 269.8447265625 244.15 269.55 243.45 269.3 242.4 269.3 241.39375 269.34375 240.8 269.35
L 240.65 269.35
Q 240.6123046875 269.348828125 240.55 269.35 237.2712890625 269.2212890625 234.75 266.7 232.15 264.15 232 260.85 231.95 259.35 231.9 259.15 231.75 258.25 231.25 257.75 230.15 256.7 227.4 258 227.61015625 258.112109375 227.8 258.2 229.12421875 258.8 230.5 258.8 230.15 261 230.8 263.25 231.4 265.45 232.85 267.2 234.25 268.9 236.35 269.95 238.4 271 240.6 271.1 241.15 271.15 242.2 271.15 243.15 271.15 243.75 271.45 244.55 271.75 245.5 272.8 247.35 274.85 250.5 281.35 253.25 287.05 256.15 289.25 258.9171875 291.4068359375 262.9 291.95 263.8228515625 292.103515625 264.8 292.15 265.1 292.15 268.2 292.15 270.25 292.15 271.55 292.4 272.1115234375 292.4935546875 272.6 292.65 273.77109375 292.9962890625 274.7 293.65 276.25 294.65 276.85 296.15 277.15 297 277.3 298.85 277.45 300.65 277.8 301.5 278.55 303.3 281.4 304.95 285.65 307.25 289.2 307.25 293.85 307.35 296.6 304.3 296.70625 304.19375 296.75 304.05 296.85 303.9224609375 296.85 303.75 296.85 303.35 296.35 303.3 295.85 303.3 295.4 303.55 294.117578125 304.2779296875 293.3 304.7 292.9607421875 304.87734375 292.7 305 291.1 305.7 289.75 305.8 288.6056640625 305.9072265625 287.3 305.6 286.7912109375 305.48515625 286.25 305.3 285 304.9 282.85 303.75 280.35 302.55 279.6 301.2 279.15 300.45 278.95 299.15 278.85 297.65 278.7 296.95 278.3 294.85 276.8 293.2 275.25 291.55 273.2 290.9 272 290.55 270.25 290.5 268.2 290.55 267.2 290.55 259.6 290.65 255.85 286.95 254.3 285.35 252.2 280.95 249.4 275.2 246.85 271.85
M 360.6 266.05
Q 359.45 267.1 359 269.15 358.75 270.35 358.45 272.85 358 275.25 356.6 277.3 355.2 279.4 353.15 280.7 352.3587890625 281.095703125 351.65 281.45 349.6408203125 282.5966796875 348.7 283.5 347.3 284.85 346.25 287.65 344.7 291.8 344.45 292.25 343.05 294.95 340.4 296.75 339.2625 297.52265625 338.05 298 336.4408203125 298.6787109375 334.7 298.85 334.480859375 298.8548828125 334.25 298.85 332.3955078125 298.9099609375 331.45 299 329.5 299.1 328.35 299.7 327.25 300.3 325.95 301.85 324.2 304.05 323.85 304.35 322.65 305.55 321.1 306.25 318.3865234375 307.486328125 314.6 307.2 314.2685546875 307.17734375 313.9 307.15 312.00078125 306.9294921875 309.75 306.25 308.15 305.75 305 304.55 304.8287109375 304.5927734375 304.75 304.75 304.7572265625 304.8140625 304.75 304.85 304.7 305.05 304.8 305.25 304.9 305.55 305.45 305.75 311.3 308.55 315.8 308.6 318.65 308.65 321.1 307.7 323.6310546875 306.7158203125 325.25 304.9 325.3935546875 304.7751953125 325.5 304.65 326 304.1 326.85 302.9 327.7 301.8 328.45 301.3 329.3212890625 300.745703125 330.7 300.5 331.0548828125 300.4416015625 331.45 300.4 332.5 300.3 334.7 300.2 338.1 299.9 341.05 297.85 344 295.85 345.55 292.75 346.75 289.65 347.4 288.1 348.5 285.3 350.05 284.05 351.25 283.05 354.1 281.7 357.6 279.45 359.1 274.7 359.95 272.15 360.6 266.05
M 324.05 286.65
Q 324.3 285.95 324 285.2 323.7 284.4 323 284.2 323.45 283.4 322.55 282.7 322.05 282.4 320.9 282.4 320.5 282.4 320.1 282.55 319.95 282.6 319.45 283.1 318.95 283.75 318.75 284.4 318.5 285.1 318.55 285.65 318.55 286.1 318.95 286.8 319.25 287.35 319.75 287.7 320.2048828125 288.0697265625 320.75 288.2 321.1755859375 288.2931640625 321.65 288.25 322.1533203125 288.2185546875 322.6 288.05 322.858984375 287.9482421875 323.1 287.8 323.8 287.35 324.05 286.65
M 320.6 284.1
L 321.8 284.1
Q 321.75 284.35 322.05 284.55
L 322.6 284.6
Q 322.65 284.95 323 285.5 323 285.75 322.7 286.15 322 286.85 321.05 286.6 320.7 286.55 320.4 286.25
L 320.1 285.8 320.05 285.4 320.6 284.1
M 326.95 255.85
Q 327 255.25 326.95 254.95 326.9 254.4 326.2 253.6 325.2 252.5 323.75 251.8 322.35 251.1 321.15 251.3 319.85 251.5 318.45 252.9 316.65 254.55 316.2 256.15 315.7 257.7 316.4 259.4 317.1 261.05 318.55 261.9 318.7310546875 262.01640625 318.9 262.1 320.1828125 262.7935546875 321.75 262.75 322.3486328125 262.732421875 322.9 262.6 323.9783203125 262.4005859375 324.95 261.85 326.25 261.05 326.95 259.7 327.75 258.25 327.3 256.95 327 256.25 326.95 255.85
M 325.6 256.1
Q 325.4 256.35 325.45 256.55 325.5 256.7 325.65 256.85
L 326 257.1
Q 326.25 257.4 326.15 258 325.95 259.1 324.95 259.95 324.1 260.75 322.85 261.05 320.9 261.5 319.4 260.7 317.6 259.75 317.5 257.9 317.4 256.6 318.35 255.5 319 254.6 320.25 253.7 320.463671875 253.5431640625 320.65 253.4 321.142578125 253.121484375 321.5 253.05 322.6 252.8 323.9 253.8 324.6 254.35 325.8 255.6 325.8 255.6509765625 325.75 255.7 325.7322265625 255.86875 325.6 256.1
M 282.1 253.65
Q 281.8 255.35 283.15 256.85 284.4 258.3 286.05 258.35 286.9 258.4 287.65 257.95 288.45 257.55 288.8 256.8 289.3 255.75 288.9 253.7 288.7 253 288.5 252.8 288.05 252.5 287.9 252.3 287.8 252.1 287.85 251.7 287.85 251.3 287.8 251.1 287.65 250.65 287.05 250.55
L 286.1 250.6
Q 285.1 250.45 284.6 250.55 284 250.65 283.2 251.45 282.25 252.6 282.1 253.65
M 283.7 253.45
Q 284.25 252.3 284.7 252.1 284.8365234375 252.0431640625 285 252 285.60703125 251.8841796875 286.65 252
L 287.75 253.85
Q 287.8 254 287.8 254.65 287.8 255.95 287.3 256.4 286.85 256.8 285.9 256.8 285.3 256.8 284.75 256.5 284.4 256.3 283.8 255.25 283.62734375 254.85546875 283.55 254.55 283.474609375 254.3021484375 283.5 254.15 283.5 253.95 283.7 253.45
M 287.05 221.45
Q 286.65 221.3 285.8 221.2 284.25 221.1 282.75 221.35 281.75 221.5 281 221.85 280 222.35 279.4 223.45 278.85 224.45 278.8 225.6 278.8 227.8 280.4 229.8 281.1 230.6 281.8 230.85 282.35 231.05 283.1 231.05
L 284.75 231.05
Q 287.15 231.15 288.15 230.4 289.65 229.3 289.55 226.75 289.4 224.35 288 222.35 287.55 221.7 287.05 221.45
M 284.8 222.8
Q 285.005078125 222.830078125 285.2 222.85 286.15 222.85 286.65 223.15 287.45 223.65 287.85 225.35 288.2 226.7 288.15 227.25 288.05 228.4 287.4 229 286.75 229.55 285.1 229.55
L 283.7 229.6
Q 282.5 229.6 282 229.35 281.05 228.85 280.55 227.3 280.2 226.1 280.25 225.3 280.3626953125 224.398828125 280.8 223.8 280.96328125 223.6494140625 281.15 223.5 281.45 223.2 282.1 223 283.1349609375 222.6849609375 284.8 222.8
M 267.55 276.95
Q 266.4 276.8 265.35 277.7 264.8 278.15 264.6 278.8 264.45 279.25 264.55 280.6 264.65 282.05 265.15 282.35 265.25 282.45 265.85 282.55 267 282.65 267.9 282.5 269.2 282.4 269.55 281.75 269.75 281.35 269.7 280.75 269.6 280 269.55 279.65 269.4 278.4 269.4 278.35 269 277.05 267.55 276.95
M 268.05 279.1
Q 268.1 279.2 268.1 279.75 268.2 280.2 268.45 280.4
L 268.7 280.75
Q 268.75 281 268.5 281.2 268.3 281.35 267.95 281.35 267.485546875 281.383203125 266.7 281.35 266.2876953125 281.33359375 265.8 281.3
L 265.8 280.85 265.85 280.2
Q 266 279.3 266.05 279.15
L 266.3 278.9 266.6 278.75
Q 266.95 278.65 267.15 278.5
L 267.4 278.4
Q 267.5 278.4 267.65 278.55 268 278.8 268.05 279.1
M 264.4 245.45
Q 264.1 245.55 263.65 245.9 262.5 246.75 262.45 247.75 262.4 248.2 262.7 248.9 263.25 250.3 263.6 250.8 264.05 251.6 264.7 251.8 265.25 251.95 265.8 251.8 267.5 251.4 268.25 249.65 268.85 248.05 268.15 246.7 267.9 245.95 267.3 245.65 266.7 245.3 265.6 245.3 264.8 245.3 264.4 245.45
M 264.95 246.85
Q 265.2 246.75 265.75 246.8 265.9556640625 246.8171875 266.1 246.8 266.4357421875 246.8328125 266.6 246.8 266.8 247.7 267.6 248.3 267.6 248.9 267.05 249.45 266.8 249.7 266 250.2 265.35 250.65 264.95 250.4 264.8400390625 250.3267578125 264.65 250.05 264.6166015625 249.969921875 264.55 249.85
L 264 248.25
Q 263.9 247.95 263.95 247.8 263.95 247.65 264.15 247.55
L 264.6 247.1 264.95 246.85 Z"/>

<path fill="#EDEAD5" stroke="none" d="
M 362.8 267.4
Q 363.2421875 265.5486328125 363.65 263.6
L 363.65 263.55
Q 362.795703125 263.567578125 361.9 264.25 359.55 265.95 358.15 271.05 356.6 276.8 355.05 278.6 354.2 279.65 352.05 281.2 351.863671875 281.335546875 351.65 281.45 352.3587890625 281.095703125 353.15 280.7 355.2 279.4 356.6 277.3 358 275.25 358.45 272.85 358.75 270.35 359 269.15 359.45 267.1 360.6 266.05 359.95 272.15 359.1 274.7 357.6 279.45 354.1 281.7 351.25 283.05 350.05 284.05 348.5 285.3 347.4 288.1 346.75 289.65 345.55 292.75 344 295.85 341.05 297.85 338.1 299.9 334.7 300.2 332.5 300.3 331.45 300.4 331.0548828125 300.4416015625 330.7 300.5 329.9515625 301.0765625 329.05 301.95 327.3 303.65 326.45 304.2 325.9119140625 304.575 325.25 304.9 323.6310546875 306.7158203125 321.1 307.7 318.65 308.65 315.8 308.6 311.3 308.55 305.45 305.75 304.9 305.55 304.8 305.25 304.7 305.05 304.75 304.85 304.7572265625 304.8140625 304.75 304.75 303.2314453125 304.1681640625 302.25 303.95 300.3966796875 303.559765625 296.75 304.05 296.70625 304.19375 296.6 304.3 293.85 307.35 289.2 307.25 285.65 307.25 281.4 304.95 278.55 303.3 277.8 301.5 277.45 300.65 277.3 298.85 277.15 297 276.85 296.15 276.25 294.65 274.7 293.65 273.77109375 292.9962890625 272.6 292.65 271.8634765625 292.6455078125 270.8 292.7 266.2 292.95 263 292 262.9548828125 291.987109375 262.9 291.95 258.9171875 291.4068359375 256.15 289.25 253.25 287.05 250.5 281.35 247.35 274.85 245.5 272.8 244.55 271.75 243.75 271.45 243.15 271.15 242.2 271.15 241.15 271.15 240.6 271.1 238.4 271 236.35 269.95 234.25 268.9 232.85 267.2 231.4 265.45 230.8 263.25 230.15 261 230.5 258.8 229.12421875 258.8 227.8 258.2 227.2193359375 258.2890625 226.65 258.55 224.8962890625 259.319921875 223.55 261.4 224.08828125 262.6556640625 224.75 264 226.755078125 268.0685546875 229.85 273 240.45 289.95 254.4 304.65 257.45 307.85 263.75 314.05 270.55 320.75 274.4 323.6 279.65 327.55 285.55 329.9 295.8 334.05 307.25 333.25 318.7 332.45 328.3 326.9 343.35 318.2 352.6 299.2 356.35 291.5 359.2 281.8 361.001171875 275.700390625 362.8 267.4
M 292.35 304.9
Q 289.5212890625 305.5408203125 287.3 305.6 288.6056640625 305.9072265625 289.75 305.8 291.1 305.7 292.7 305 292.9607421875 304.87734375 293.3 304.7 292.843359375 304.7916015625 292.35 304.9
M 317.75 306.75
Q 315.2677734375 307.0716796875 313.9 307.15 314.2685546875 307.17734375 314.6 307.2 318.3865234375 307.486328125 321.1 306.25 319.710546875 306.51328125 317.75 306.75
M 338.05 298
Q 337.7341796875 298.08671875 337.4 298.15 335.582421875 298.500390625 334.25 298.85 334.480859375 298.8548828125 334.7 298.85 336.4408203125 298.6787109375 338.05 298
M 320.75 288.2
Q 320.9966796875 288.2642578125 321.3 288.3 322.1900390625 288.39375 322.6 288.05 322.1533203125 288.2185546875 321.65 288.25 321.1755859375 288.2931640625 320.75 288.2
M 322.05 284.55
Q 321.75 284.35 321.8 284.1
L 320.6 284.1 320.05 285.4 320.1 285.8 320.4 286.25
Q 320.7 286.55 321.05 286.6 322 286.85 322.7 286.15 323 285.75 323 285.5 322.65 284.95 322.6 284.6
L 322.05 284.55
M 320.8 263
Q 321.9828125 263.1478515625 322.9 262.6 322.3486328125 262.732421875 321.75 262.75 320.1828125 262.7935546875 318.9 262.1 319.6990234375 262.8564453125 320.8 263
M 325.75 255.7
Q 325.6462890625 255.564453125 325.5 255.4 324.4 254.2 323.7 253.85 322.2109375 253.0048828125 320.65 253.4 320.463671875 253.5431640625 320.25 253.7 319 254.6 318.35 255.5 317.4 256.6 317.5 257.9 317.6 259.75 319.4 260.7 320.9 261.5 322.85 261.05 324.1 260.75 324.95 259.95 325.95 259.1 326.15 258 326.25 257.4 326 257.1
L 325.65 256.85
Q 325.5 256.7 325.45 256.55 325.4 256.35 325.6 256.1 325.7322265625 255.86875 325.75 255.7
M 285 252
Q 284.570703125 252.2703125 284.2 252.8 283.5 253.7 283.55 254.5 283.55 254.541015625 283.55 254.55 283.62734375 254.85546875 283.8 255.25 284.4 256.3 284.75 256.5 285.3 256.8 285.9 256.8 286.85 256.8 287.3 256.4 287.8 255.95 287.8 254.65 287.8 254 287.75 253.85
L 286.65 252
Q 285.60703125 251.8841796875 285 252
M 284.8 222.8
Q 284.573046875 222.8732421875 284.3 222.95 282.9 223.2 282.25 223.35 281.391015625 223.52890625 280.8 223.8 280.3626953125 224.398828125 280.25 225.3 280.2 226.1 280.55 227.3 281.05 228.85 282 229.35 282.5 229.6 283.7 229.6
L 285.1 229.55
Q 286.75 229.55 287.4 229 288.05 228.4 288.15 227.25 288.2 226.7 287.85 225.35 287.45 223.65 286.65 223.15 286.15 222.85 285.2 222.85 285.005078125 222.830078125 284.8 222.8
M 268.1 279.75
Q 268.1 279.2 268.05 279.1 268 278.8 267.65 278.55 267.5 278.4 267.4 278.4
L 267.15 278.5
Q 266.95 278.65 266.6 278.75
L 266.3 278.9 266.05 279.15
Q 266 279.3 265.85 280.2
L 265.8 280.85 265.85 280.9 266.7 281.35
Q 267.485546875 281.383203125 267.95 281.35 268.3 281.35 268.5 281.2 268.75 281 268.7 280.75
L 268.45 280.4
Q 268.2 280.2 268.1 279.75
M 265.75 246.8
Q 265.2 246.75 264.95 246.85
L 264.6 247.1 264.15 247.55
Q 263.95 247.65 263.95 247.8 263.9 247.95 264 248.25
L 264.55 249.85
Q 264.6166015625 249.969921875 264.65 250.05 265.021484375 250.1908203125 265.45 250.15 266.5 250.05 266.85 249 267.15 247.95 266.2 246.9 266.16015625 246.86015625 266.1 246.8 265.9556640625 246.8171875 265.75 246.8 Z"/>

<path fill="#D3B263" stroke="none" d="
M 337 108.1
Q 336.35 106.25 335.2 104.95 333.85 103.5 332.15 103.25 330.25 102.95 327.45 104.5 323.9 106.4 322.5 108.4 321.45 109.9 320.45 113.35 319.45 116.85 318.5 118.35 318 119.2 317.9 119.35 317.65 119.95 317.8 120.45 317.8 120.5 318.25 121.2 318.5 121.6 318.45 121.95 318.3 122.6 317.25 122.6 315 122.55 313.7 119.95 313.2 118.9 312.6 115.45 311.55 108.7 308.7 102.65 307.55 100.1 306.1 98.7 304.1 96.75 301.75 97.3 299.2 97.9 297.3 102.55
L 294.95 108.15
Q 294.25 109.95 293.35 110.55 292.55 111.05 291.5 110.9 290.55 110.8 289.75 110.15 288.5 109.2 287.5 107 286.55 104.95 283.15 95.25 280.65 88 277.75 84.1 276.2 82 274.6 81.8 273.05 81.65 271.75 83.2 270.75 84.35 270.05 86.35 265 101.5 267 120.6 267.5 125.55 267.55 126.55 267.7 129.9 267.2 132.4 266.6 135.5 264.65 135.9 262.8 136.3 260.55 133.65
L 255.95 128.25
Q 254.6 126.65 253.75 125.95 252.35 124.85 250.95 124.75 249.65 124.6 248.3 125.35 247.15 126 246.25 127.2 245.2 128.6 244.05 132.2 239.2 147.75 233.25 162.8 231.85 166.35 229 173.4 226.55 179.6 225.1 184.15 223.25 189.95 220.2 202.25 218.2 210.15 217.8 214.2 217.3 218.95 217.8 227.65 218.35 238.65 219.1 244.3 220.35 253.5 223.1 260.35 223.31171875 260.8697265625 223.55 261.4 224.8962890625 259.319921875 226.65 258.55 227.2193359375 258.2890625 227.8 258.2 227.61015625 258.112109375 227.4 258 230.15 256.7 231.25 257.75 231.75 258.25 231.9 259.15 231.95 259.35 232 260.85 232.15 264.15 234.75 266.7 237.2712890625 269.2212890625 240.55 269.35 240.6123046875 269.348828125 240.65 269.35
L 240.8 269.35
Q 241.39375 269.34375 242.4 269.3 243.45 269.3 244.15 269.55 244.96875 269.8447265625 245.85 270.75 246.349609375 271.21171875 246.85 271.85 249.4 275.2 252.2 280.95 254.3 285.35 255.85 286.95 259.6 290.65 267.2 290.55 268.2 290.55 270.25 290.5 272 290.55 273.2 290.9 275.25 291.55 276.8 293.2 278.3 294.85 278.7 296.95 278.85 297.65 278.95 299.15 279.15 300.45 279.6 301.2 280.35 302.55 282.85 303.75 285 304.9 286.25 305.3 286.7912109375 305.48515625 287.3 305.6 289.5212890625 305.5408203125 292.35 304.9 292.843359375 304.7916015625 293.3 304.7 294.117578125 304.2779296875 295.4 303.55 295.85 303.3 296.35 303.3 296.85 303.35 296.85 303.75 296.85 303.9224609375 296.75 304.05 300.3966796875 303.559765625 302.25 303.95 303.2314453125 304.1681640625 304.75 304.75 304.8287109375 304.5927734375 305 304.55 308.15 305.75 309.75 306.25 312.00078125 306.9294921875 313.9 307.15 315.2677734375 307.0716796875 317.75 306.75 319.710546875 306.51328125 321.1 306.25 322.65 305.55 323.85 304.35 324.2 304.05 325.95 301.85 327.25 300.3 328.35 299.7 329.5 299.1 331.45 299 332.3955078125 298.9099609375 334.25 298.85 335.582421875 298.500390625 337.4 298.15 337.7341796875 298.08671875 338.05 298 339.2625 297.52265625 340.4 296.75 343.05 294.95 344.45 292.25 344.7 291.8 346.25 287.65 347.3 284.85 348.7 283.5 349.6408203125 282.5966796875 351.65 281.45 351.863671875 281.335546875 352.05 281.2 354.2 279.65 355.05 278.6 356.6 276.8 358.15 271.05 359.55 265.95 361.9 264.25 362.795703125 263.567578125 363.65 263.55 366.2001953125 251.6921875 366.45 243.9 366.55 240 366.1 233.7 364.4 211.45 358.1 186.05 353.1 166.05 344.05 139.65 341.5 132.15 340.65 129.15 338.95 123.15 338.5 118.3 338.25 114.85 338.05 113.15 337.75 110.15 337 108.1
M 263.65 245.9
Q 264.1 245.55 264.4 245.45 264.8 245.3 265.6 245.3 266.7 245.3 267.3 245.65 267.9 245.95 268.15 246.7 268.85 248.05 268.25 249.65 267.5 251.4 265.8 251.8 265.25 251.95 264.7 251.8 264.05 251.6 263.6 250.8 263.25 250.3 262.7 248.9 262.4 248.2 262.45 247.75 262.5 246.75 263.65 245.9
M 265.35 277.7
Q 266.4 276.8 267.55 276.95 269 277.05 269.4 278.35 269.4 278.4 269.55 279.65 269.6 280 269.7 280.75 269.75 281.35 269.55 281.75 269.2 282.4 267.9 282.5 267 282.65 265.85 282.55 265.25 282.45 265.15 282.35 264.65 282.05 264.55 280.6 264.45 279.25 264.6 278.8 264.8 278.15 265.35 277.7
M 285.8 221.2
Q 286.65 221.3 287.05 221.45 287.55 221.7 288 222.35 289.4 224.35 289.55 226.75 289.65 229.3 288.15 230.4 287.15 231.15 284.75 231.05
L 283.1 231.05
Q 282.35 231.05 281.8 230.85 281.1 230.6 280.4 229.8 278.8 227.8 278.8 225.6 278.85 224.45 279.4 223.45 280 222.35 281 221.85 281.75 221.5 282.75 221.35 284.25 221.1 285.8 221.2
M 283.15 256.85
Q 281.8 255.35 282.1 253.65 282.25 252.6 283.2 251.45 284 250.65 284.6 250.55 285.1 250.45 286.1 250.6
L 287.05 250.55
Q 287.65 250.65 287.8 251.1 287.85 251.3 287.85 251.7 287.8 252.1 287.9 252.3 288.05 252.5 288.5 252.8 288.7 253 288.9 253.7 289.3 255.75 288.8 256.8 288.45 257.55 287.65 257.95 286.9 258.4 286.05 258.35 284.4 258.3 283.15 256.85
M 326.95 254.95
Q 327 255.25 326.95 255.85 327 256.25 327.3 256.95 327.75 258.25 326.95 259.7 326.25 261.05 324.95 261.85 323.9783203125 262.4005859375 322.9 262.6 321.9828125 263.1478515625 320.8 263 319.6990234375 262.8564453125 318.9 262.1 318.7310546875 262.01640625 318.55 261.9 317.1 261.05 316.4 259.4 315.7 257.7 316.2 256.15 316.65 254.55 318.45 252.9 319.85 251.5 321.15 251.3 322.35 251.1 323.75 251.8 325.2 252.5 326.2 253.6 326.9 254.4 326.95 254.95
M 324 285.2
Q 324.3 285.95 324.05 286.65 323.8 287.35 323.1 287.8 322.858984375 287.9482421875 322.6 288.05 322.1900390625 288.39375 321.3 288.3 320.9966796875 288.2642578125 320.75 288.2 320.2048828125 288.0697265625 319.75 287.7 319.25 287.35 318.95 286.8 318.55 286.1 318.55 285.65 318.5 285.1 318.75 284.4 318.95 283.75 319.45 283.1 319.95 282.6 320.1 282.55 320.5 282.4 320.9 282.4 322.05 282.4 322.55 282.7 323.45 283.4 323 284.2 323.7 284.4 324 285.2 Z"/>
</g>
</defs>

<g transform="matrix( 1, 0, 0, 1, 0,0) ">
<use xlink:href="#Layer0_0_FILL"/>
</g>
</svg>
