
<svg xmlns="http://www.w3.org/2000/svg" version="1.1" xmlns:xlink="http://www.w3.org/1999/xlink" preserveAspectRatio="none" x="0px" y="0px" width="640px" height="480px" viewBox="0 0 640 480">
<defs>
<g id="Layer0_0_FILL">
<path fill="#000000" stroke="none" d="
M 330 109.35
Q 328.35 109.8 326.6 111.05 322.55 113.95 320 118.15 318.65 120.5 317.35 120.2 316.35 120.05 315.6 118.25
L 311.05 107.45
Q 310.25 105.5 309.65 104.55 308.65 103.05 307.35 102.4 305.55 101.45 303.05 102.2 301.3 102.7 298.75 104.25
L 291.65 108.55
Q 288.95 110.25 287.35 109.55 286.15 109.05 285.15 106.95
L 278.25 93.45
Q 276.1 89.05 273.45 89.2 270.95 89.3 269.25 93.35 265.55 102 264.75 111.2 264.4 115.2 264.15 123.35 263.65 130.5 261.55 135 261.2 132.75 259.25 131.05 257.4 129.45 255 129.1 250.55 128.45 246.15 131.8 243.15 134.05 239.95 138.85 227.05 157.85 222.05 183.4 217.75 204.85 219.35 231.5 220.05 243.3 221.7 251.85 223.95 262.9 228.7 274.15 234.45 287.7 242.7 298.95 251.5 310.9 262.5 319.35 274.1 328.25 287.6 332.75 301.7 337.45 315.65 336.6 323.35 336.15 330.05 333.9 338.9 330.85 346.4 324.15 353.55 317.8 358.35 309.2 367 293.85 368.4 272.4 368.95 263.7 368.35 253.25 367.9 245.6 366.65 234.1 366 227.7 365.25 222.75 362.55 203.9 354.45 175.6 342.65 134.7 341.25 128.95 339.6 122.5 339.1 120.65 337.7 116.05 336 112.7 334.85 110.5 333.55 109.7 332.05 108.85 330 109.35
M 329.55 112.3
Q 331.5 111.35 332.7 111.9 333.8 112.45 334.5 114.55 335.4 117.2 337.9 125.7
L 349.4 166
Q 353.9 181.65 356.05 189.75 359.5 203 361.55 213.8 365.5341796875 234.5748046875 366.15 255.6 366.24375 257.70546875 366.25 259.8 366.3158203125 262.548046875 366.3 265.3 366.2 272.9 365.6 278.1 364.55 287.55 360.85 298.75 358.25 306.5 355.5 310.65 353.2 314.25 348.1 319.35 341.9 325.45 337.45 328.1 330.35 332.4 319.9 333.75 307.6 335.3 294.95 332.35 282.65 329.5 271.7 322.85 261.2 316.5 252.3 307 243.85 297.95 237.5 286.7 230.20390625 273.771875 226.4 259.8 226.1970703125 259.06484375 226 258.3 225.5751953125 256.6556640625 225.2 255 222.5 243.3 221.75 228.55 220.55 205.55 224.35 185.4 228.6 162.95 238.9 145.1 242.95 138.1 246.9 134.7 249.55 132.3 252.15 131.8 253.75 131.5 255.2 131.95 256.75 132.4 257.65 133.55 258.35 134.35 259.35 136.35 260.35 138 261.6 138.1 262.85 138.2 263.85 136.95 264.6 135.95 265 134.35 266.15 129.9 266.65 123.55 267.1 116.2 267.35 112.55 267.85 106.2 268.95 101.65 270.4 95.8 273.1 91.6 275.05 92.05 276.7 95.45
L 282.65 107.4
Q 283.55 109.2 284.25 110.15 285.3 111.55 286.6 112.05 288.45 112.8 290.85 111.8 292.4 111.15 294.85 109.4 298.05 107.25 301.75 105.45 304.7 103.95 306.5 104.8 307.95 105.55 309 108.55 311.15 114.45 313.65 119.45 315.35 122.75 317.2 122.95 318.85 123.2 320.35 121.65 321.1 120.85 322.65 118.4 325.3 114.35 329.55 112.3
M 284.25 302.15
L 283.85 302.4 283.55 302.5 283.25 302.55 282.95 302.65
Q 282.85 302.75 282.9 302.9
L 284 303
Q 284.15 302.5 284.65 302.35
L 285.1 302.25
Q 285.3 302.15 285.3 301.9 284.75 301.8 284.25 302.15
M 360.65 255.1
Q 359.5044921875 255.825390625 358.8 258 358.57734375 258.684375 358.4 259.5 356.85 267.45 356.8 267.6 355.8421875 271.7962890625 354.4 274.75 354.3685546875 274.8861328125 354.3 275 354.2173828125 275.1697265625 354.15 275.3 353.8 275.95 353.45 276.1 353 276.35 352.25 276.05 351.4578125 275.863671875 350.8 275.8 349.31171875 275.651953125 348.45 276.1 347.55 276.55 346.75 277.8 346.4693359375 278.2611328125 346.1 278.95 345.56875 280.0126953125 344.85 281.6 343.75 284.15 342.9 285.4 342.15 286.55 339.8 289
L 336.55 292.3 335.05 293.8 334.95 293.95
Q 333.85 295.05 333.2 294.6 333.1 295.05 333.55 295.4 334 295.75 334.5 295.65 335.15 295.55 336.1 294.6
L 338.85 291.85
Q 340.7076171875 289.9923828125 342 288.45 343.2498046875 287.06328125 344 285.95 344.2392578125 285.57265625 344.5 285.1 345.67734375 283.0994140625 347.35 279.55 348.45 277.35 349.8 277.1 350.45 277 352.15 277.55 353.55 278.05 354.3 277.65 354.95 277.3 355.45 276.15 356.8005859375 273.2486328125 357.8 269.5 358.7240234375 266.15078125 359.35 262.1 359.431640625 261.663671875 359.5 261.2 359.8 258.95 360.3 258 361.1 256.25 362.75 255.95 363.55 255.85 364.3 256.3 365.1 256.8 365.2 257.6
L 365.9 257.5
Q 366.3 256.85 365.85 256.1 365.574609375 255.6181640625 365.1 255.25 364.8994140625 255.124609375 364.65 255 362.35 253.9 360.65 255.1
M 250.8 269
Q 250.441015625 268.3564453125 250.05 267.7 249.95 267.6 249.85 267.8 249.75 268 249.8 268.15 250.85 271.1 254.3 279.05 255.25 281.1 255.6 281.55 256.8 283.15 258.6 284 259.3220703125 284.3380859375 260 284.5 261.5953125 284.9462890625 263.05 284.6
L 264.85 284
Q 266.269921875 283.579296875 267.75 283.6 269.127734375 283.620703125 270.55 284 272.95 284.7 274.45 286.05 276.1998046875 287.6408203125 277 290.15 277.246484375 290.794140625 277.4 291.5 277.85 293.3 278.05 297.8 278.25 297.9 278.45 297.7 278.6 297.55 278.65 297.3 279.65 293.2 278.15 289.1 277.65 287.8 277.05 286.9 275.6 284.65 272.85 283.4 270.35 282.2 267.35 282.1 266.25 282.05 265.1 282.25 263.55 282.85 262.75 283.05 261.5 283.4 260.15 283.1 258.8 282.8 257.8 281.95 256.7 281.05 255.9 279.45 255.5 278.7 254.6 276.5 253.09453125 272.97265625 250.8 269
M 248.8 265.3
Q 248.95 265.15 248.75 264.85 248.50859375 264.415625 247.6 263.5 247.5828125 263.4828125 247.55 263.45 246.65 262.65 246.1 262.45 245.4 262.15 244.35 262.05 243.1 261.95 242.55 262.1 241.95 262.2 241.15 262.75 239.5 263.9 238.4 265.55 238 266.05 237.8 266.15 237.1 266.55 236.35 265.8 236.2 265.65 235.55 264.45
L 235 263.5 234.7 262.45
Q 234.35 260.75 234.4 260.15 234.85 258.35 234.85 257.4 234.8 256.5 234.2 255.75 233.6 254.95 232.75 254.7 231.85 254.4 230.4 254.7 229.7232421875 254.7845703125 229.6 255.15 229.6 255.223046875 229.6 255.3 230 255.75 231.25 255.85 232.45 256 232.85 256.4 233.3 256.9 233.2 257.9 233.15 258.4 232.85 259.4 232.65 260.7 233.2 262.9 233.45 264.15 233.9 265 234.3 265.9 235.4 267.2 235.85 267.75 236.2 267.85 236.4 267.9 237.25 267.9
L 238.05 267.9
Q 238.45 267.85 238.95 267.35 239.33671875 267.01171875 240.2 265.85
L 240.25 265.85
Q 240.283203125 265.8212890625 240.3 265.8 241.1 264.8 241.7 264.4 241.853125 264.2873046875 242.05 264.15 243.03671875 263.6517578125 245.05 263.4 246.35 263.3 246.85 263.5 247.3 263.7 247.85 264.35 248.55 265.1 248.8 265.3
M 325.5 297.25
Q 324.652734375 297.8974609375 324.05 298.45 322.1 300.3 321.1 301.15 319.01171875 302.7939453125 316.6 303.5 316.30625 303.5775390625 316 303.65 313 304.3 310.55 303.2 309.1 302.55 307.55 301.1 306.369140625 299.8845703125 305.6 299.1 305.2595703125 298.7595703125 305 298.5 301.6 295.1 298.6 295.4 297.1 295.55 295.35 296.65 295.290234375 296.69609375 295.2 296.75 293.3693359375 298.169921875 292.4 298.8 290.9 299.85 288.85 300.65 289.2 301 289.9 300.7 291 300.35 292.35 299.55 293.15 299.1 294.7 298.1 296.492578125 297.04921875 298 296.8 298.9599609375 296.647265625 299.8 296.8 300.6392578125 296.93984375 301.5 297.4 302.1953125 297.8052734375 302.9 298.4 303.2 298.7 305.45 301 307.25 302.8 309.15 304.05 310.85 305.15 311.9 305.35 312.9 305.6 314.5 305.4 319.2 304.85 321.8 302.45 322 302.25 324.2 299.8 325.2 298.75 327.3 297.15 329.45 295.55 329.75 294.2 327.1560546875 295.929296875 325.5 297.25
M 292.2 234.75
Q 291.6 233.75 290.65 233.3 289.55 233.05 289 232.9 287.4 232.3 286.6 232.1 284.6 231.65 282.1 232.8 279.4 234 278.5 236 278.0357421875 237.083203125 278.2 238.35 278.2869140625 238.715234375 278.4 239.1 278.8416015625 240.6701171875 280 241.75 280.0275390625 241.7794921875 280.05 241.8 282.25 243.8 285.95 243.95 287.9 244.05 289.35 243.5 291.95 242.45 292.85 239.8 293.75 237.15 292.2 234.75
M 283.9 234
Q 285.5 233.5 286.85 234.05 288.15 234.65 288.25 234.65 289.2 234.95 289.6 234.2 290.7 234.85 291.3 236.05 291.3484375 236.146875 291.4 236.25 291.8837890625 237.3509765625 291.7 238.5 291.61796875 239.21171875 291.3 239.8 291.0572265625 240.3474609375 290.65 240.8 289.8 241.8 288.55 242.15 287.9 242.3 286.55 242.4 284.45 242.5 283.25 242.1 281.7 241.6 280.45 239.95 279.7 239.1 279.65 238.35 279.45 236.9 281.15 235.5 282.45 234.4 283.9 234
M 272.05 265.45
Q 271.7 264.85 271.1 264.55 270.45 264.2 268.65 264.1 267.3 264.1 266.95 264.2 265.55 264.55 263.8 266.5 262.75 267.65 262.6 268.45 262.5 268.95 262.7 269.95 262.9 270.95 263.1 271.45 264.15 273.6 267.4 273.8 269.4 273.95 271.15 273.05 273 271.95 273.45 270.1 273.65 269.1 273.3 268.15 273 267.2 272.2 266.65 272.4 266.1 272.05 265.45
M 264.8 271.55
Q 264.5 271.15 264.35 270.3 264.15 269.35 263.95 269 264.6 267.25 266.15 266.25 267.75 265.3 269.55 265.6 270.25 265.75 271 266.15 270.75 266.2 270.7 266.55 270.65 266.9 270.8 267.15
L 271.7 267.9
Q 271.9896484375 268.1896484375 272.15 268.6 272.246484375 268.8328125 272.3 269.1 272.35 269.85 272.1 270.45 271.9052734375 270.8748046875 271.55 271.2 271.001171875 271.826953125 270 272.15 268.9 272.55 267.3 272.45 265.45 272.45 264.8 271.55
M 328.75 265.7
Q 328.7 265.65 327.35 264.6 326.3 263.5 325.65 263.1 325 262.65 324 262.55 323.55 262.5 322.25 262.5 319.95 262.6 319.05 262.9 317.25 263.55 316.2 265.3 315.2 267.05 315.4 268.95 315.65 270.8 316.95 272.35 318.25 273.85 320.1 274.4 321.9 274.95 323.85 274.55 325.75 274.1 327.25 272.9 328.6 271.9 329.1 270.55 329.5 269.6 329.5 268.4 329.5 266.65 328.75 265.7
M 325.4 264.6
L 326 265.3
Q 326.3 265.55 326.95 265.9 327.65 266.3 328 267.1 328.4 267.85 328.3 268.7 328.2654296875 269.7384765625 327.55 270.7 327.2806640625 271.1693359375 326.85 271.6 325 273.45 322.15 273.3 319.45 273.15 317.75 270.95 317.61171875 270.771484375 317.5 270.6 316.5837890625 269.2318359375 316.75 267.8
L 316.75 267.8
Q 316.85 266.65 317.75 265.7 318.6 264.8 319.8 264.35 319.8986328125 264.3171875 320 264.25 321.1724609375 263.95 323.1 263.95 324.7 263.95 325.4 264.6 Z"/>

<path fill="#EDEAD5" stroke="none" d="
M 362.75 255.95
Q 361.1 256.25 360.3 258 359.8 258.95 359.5 261.2 359.431640625 261.663671875 359.35 262.1 358.7240234375 266.15078125 357.8 269.5 356.8005859375 273.2486328125 355.45 276.15 354.95 277.3 354.3 277.65 353.55 278.05 352.15 277.55 350.45 277 349.8 277.1 348.45 277.35 347.35 279.55 345.67734375 283.0994140625 344.5 285.1 344.2392578125 285.57265625 344 285.95 343.2498046875 287.06328125 342 288.45 340.7076171875 289.9923828125 338.85 291.85
L 336.1 294.6
Q 335.15 295.55 334.5 295.65 334 295.75 333.55 295.4 333.1 295.05 333.2 294.6 333.85 295.05 334.95 293.95
L 335.05 293.8
Q 334.1326171875 294.46875 333.1 294.5 332.5 294.5 331.1 294.15 329.85 293.85 329.15 293.95 327.9 294.1 326.8 295.35 326.463671875 295.7283203125 325.5 297.25 327.1560546875 295.929296875 329.75 294.2 329.45 295.55 327.3 297.15 325.2 298.75 324.2 299.8 322 302.25 321.8 302.45 319.2 304.85 314.5 305.4 312.9 305.6 311.9 305.35 310.85 305.15 309.15 304.05 307.25 302.8 305.45 301 303.2 298.7 302.9 298.4 302.1953125 297.8052734375 301.5 297.4 299.81875 296.954296875 298 296.8 296.492578125 297.04921875 294.7 298.1 293.15 299.1 292.35 299.55 291 300.35 289.9 300.7 289.2 301 288.85 300.65 290.9 299.85 292.4 298.8 293.3693359375 298.169921875 295.2 296.75 295.1408203125 296.7453125 295.05 296.75 289.35 297.1 284.9 300.2 283.45 301.25 282.95 301.5 281.85 302.15 280.85 302.1 279.45 302.05 278.35 300.75 277.4 299.55 277.15 297.9 277 296.8 277.15 294.85 277.3 292.65 277.25 291.8 277.2107421875 290.955078125 277 290.15 276.1998046875 287.6408203125 274.45 286.05 272.95 284.7 270.55 284 269.127734375 283.620703125 267.75 283.6 266.446875 283.87578125 265.35 284.65 265 284.95 264.25 285.5 263.55 286 262.95 286.05 261.95 286.15 260.45 284.9 260.2330078125 284.7138671875 260 284.5 259.3220703125 284.3380859375 258.6 284 256.8 283.15 255.6 281.55 255.25 281.1 254.3 279.05 250.85 271.1 249.8 268.15 249.75 268 249.85 267.8 249.95 267.6 250.05 267.7 250.441015625 268.3564453125 250.8 269 250.6353515625 268.3787109375 250.5 267.95 249.95 266.3 249.25 265.25 248.574609375 264.17734375 247.6 263.5 248.50859375 264.415625 248.75 264.85 248.95 265.15 248.8 265.3 248.55 265.1 247.85 264.35 247.3 263.7 246.85 263.5 246.35 263.3 245.05 263.4 243.03671875 263.6517578125 242.05 264.15 241.4658203125 264.6841796875 240.8 265.35 240.561328125 265.588671875 240.3 265.8 240.283203125 265.8212890625 240.25 265.85
L 240.2 265.85
Q 239.33671875 267.01171875 238.95 267.35 238.45 267.85 238.05 267.9
L 237.25 267.9
Q 236.4 267.9 236.2 267.85 235.85 267.75 235.4 267.2 234.3 265.9 233.9 265 233.45 264.15 233.2 262.9 232.65 260.7 232.85 259.4 233.15 258.4 233.2 257.9 233.3 256.9 232.85 256.4 232.45 256 231.25 255.85 230 255.75 229.6 255.3 229.6 255.223046875 229.6 255.15 228.4134765625 255.469140625 227.5 256.2 226.4 257 226.05 258.15 226.021484375 258.225 226 258.3 226.1970703125 259.06484375 226.4 259.8 230.20390625 273.771875 237.5 286.7 243.85 297.95 252.3 307 261.2 316.5 271.7 322.85 282.65 329.5 294.95 332.35 307.6 335.3 319.9 333.75 330.35 332.4 337.45 328.1 341.9 325.45 348.1 319.35 353.2 314.25 355.5 310.65 358.25 306.5 360.85 298.75 364.55 287.55 365.6 278.1 366.2 272.9 366.3 265.3 366.3158203125 262.548046875 366.25 259.8 366.24375 257.70546875 366.15 255.6 365.6859375 255.3642578125 365.1 255.25 365.574609375 255.6181640625 365.85 256.1 366.3 256.85 365.9 257.5
L 365.2 257.6
Q 365.1 256.8 364.3 256.3 363.55 255.85 362.75 255.95
M 283.85 302.4
L 284.25 302.15
Q 284.75 301.8 285.3 301.9 285.3 302.15 285.1 302.25
L 284.65 302.35
Q 284.15 302.5 284 303
L 282.9 302.9
Q 282.85 302.75 282.95 302.65
L 283.25 302.55 283.55 302.5 283.85 302.4
M 316 303.65
Q 316.30625 303.5775390625 316.6 303.5 315.1939453125 303.6654296875 313.8 303.4 311.95 303 309.55 301.55 306.991796875 299.860546875 305.6 299.1 306.369140625 299.8845703125 307.55 301.1 309.1 302.55 310.55 303.2 313 304.3 316 303.65
M 354.15 275.3
Q 354.2173828125 275.1697265625 354.3 275 353.944140625 275.6234375 353.4 275.85 352.95 276.05 352.2 275.95 351.1 275.8 351 275.8 350.8962890625 275.7951171875 350.8 275.8 351.4578125 275.863671875 352.25 276.05 353 276.35 353.45 276.1 353.8 275.95 354.15 275.3
M 339.8 289
Q 342.15 286.55 342.9 285.4 343.75 284.15 344.85 281.6 345.56875 280.0126953125 346.1 278.95 340.3240234375 285.64765625 338.2 289.55 337.21953125 291.3599609375 336.55 292.3
L 339.8 289
M 358.4 259.5
Q 358.57734375 258.684375 358.8 258 357.0861328125 259.8923828125 356.2 262.6 355.55 264.75 355.25 267.8 355.05 269.6 354.8 273.1 354.71171875 274.0923828125 354.4 274.75 355.8421875 271.7962890625 356.8 267.6 356.85 267.45 358.4 259.5
M 278.2 238.35
Q 278.181640625 238.7728515625 278.25 239.2 278.48203125 240.8236328125 280 241.75 278.8416015625 240.6701171875 278.4 239.1 278.2869140625 238.715234375 278.2 238.35
M 286.85 234.05
Q 285.5 233.5 283.9 234 282.45 234.4 281.15 235.5 279.45 236.9 279.65 238.35 279.7 239.1 280.45 239.95 281.7 241.6 283.25 242.1 284.45 242.5 286.55 242.4 287.9 242.3 288.55 242.15 289.8 241.8 290.65 240.8 291.0572265625 240.3474609375 291.3 239.8 291.7 238.9435546875 291.7 237.85 291.7 237.0232421875 291.4 236.25 291.3484375 236.146875 291.3 236.05 290.7 234.85 289.6 234.2 289.2 234.95 288.25 234.65 288.15 234.65 286.85 234.05
M 264.35 270.3
Q 264.5 271.15 264.8 271.55 265.45 272.45 267.3 272.45 268.9 272.55 270 272.15 271.001171875 271.826953125 271.55 271.2 272.21640625 270.1265625 272.15 268.6 271.9896484375 268.1896484375 271.7 267.9
L 270.8 267.15
Q 270.65 266.9 270.7 266.55 270.75 266.2 271 266.15 270.25 265.75 269.55 265.6 267.75 265.3 266.15 266.25 264.6 267.25 263.95 269 264.15 269.35 264.35 270.3
M 327.7 269.75
Q 327.7 268.45 326.85 266.9 326.3 265.8 325.55 265.2 324.35 264.25 321.3 264.25 320.5681640625 264.25 320 264.25 319.8986328125 264.3171875 319.8 264.35 318.6 264.8 317.75 265.7 316.85 266.65 316.75 267.8
L 316.75 267.8
Q 316.788671875 268.0353515625 316.85 268.25 317.4291015625 270.2544921875 317.5 270.6 317.61171875 270.771484375 317.75 270.95 319.45 273.15 322.15 273.3 325 273.45 326.85 271.6 327.2806640625 271.1693359375 327.55 270.7 327.7 270.2677734375 327.7 269.75 Z"/>

<path fill="#D3B263" stroke="none" d="
M 332.7 111.9
Q 331.5 111.35 329.55 112.3 325.3 114.35 322.65 118.4 321.1 120.85 320.35 121.65 318.85 123.2 317.2 122.95 315.35 122.75 313.65 119.45 311.15 114.45 309 108.55 307.95 105.55 306.5 104.8 304.7 103.95 301.75 105.45 298.05 107.25 294.85 109.4 292.4 111.15 290.85 111.8 288.45 112.8 286.6 112.05 285.3 111.55 284.25 110.15 283.55 109.2 282.65 107.4
L 276.7 95.45
Q 275.05 92.05 273.1 91.6 270.4 95.8 268.95 101.65 267.85 106.2 267.35 112.55 267.1 116.2 266.65 123.55 266.15 129.9 265 134.35 264.6 135.95 263.85 136.95 262.85 138.2 261.6 138.1 260.35 138 259.35 136.35 258.35 134.35 257.65 133.55 256.75 132.4 255.2 131.95 253.75 131.5 252.15 131.8 249.55 132.3 246.9 134.7 242.95 138.1 238.9 145.1 228.6 162.95 224.35 185.4 220.55 205.55 221.75 228.55 222.5 243.3 225.2 255 225.5751953125 256.6556640625 226 258.3 226.021484375 258.225 226.05 258.15 226.4 257 227.5 256.2 228.4134765625 255.469140625 229.6 255.15 229.7232421875 254.7845703125 230.4 254.7 231.85 254.4 232.75 254.7 233.6 254.95 234.2 255.75 234.8 256.5 234.85 257.4 234.85 258.35 234.4 260.15 234.35 260.75 234.7 262.45
L 235 263.5 235.55 264.45
Q 236.2 265.65 236.35 265.8 237.1 266.55 237.8 266.15 238 266.05 238.4 265.55 239.5 263.9 241.15 262.75 241.95 262.2 242.55 262.1 243.1 261.95 244.35 262.05 245.4 262.15 246.1 262.45 246.65 262.65 247.55 263.45 247.5828125 263.4828125 247.6 263.5 248.574609375 264.17734375 249.25 265.25 249.95 266.3 250.5 267.95 250.6353515625 268.3787109375 250.8 269 253.09453125 272.97265625 254.6 276.5 255.5 278.7 255.9 279.45 256.7 281.05 257.8 281.95 258.8 282.8 260.15 283.1 261.5 283.4 262.75 283.05 263.55 282.85 265.1 282.25 266.25 282.05 267.35 282.1 270.35 282.2 272.85 283.4 275.6 284.65 277.05 286.9 277.65 287.8 278.15 289.1 279.65 293.2 278.65 297.3 278.6 297.55 278.45 297.7 278.25 297.9 278.05 297.8 277.85 293.3 277.4 291.5 277.246484375 290.794140625 277 290.15 277.2107421875 290.955078125 277.25 291.8 277.3 292.65 277.15 294.85 277 296.8 277.15 297.9 277.4 299.55 278.35 300.75 279.45 302.05 280.85 302.1 281.85 302.15 282.95 301.5 283.45 301.25 284.9 300.2 289.35 297.1 295.05 296.75 295.1408203125 296.7453125 295.2 296.75 295.290234375 296.69609375 295.35 296.65 297.1 295.55 298.6 295.4 301.6 295.1 305 298.5 305.2595703125 298.7595703125 305.6 299.1 306.991796875 299.860546875 309.55 301.55 311.95 303 313.8 303.4 315.1939453125 303.6654296875 316.6 303.5 319.01171875 302.7939453125 321.1 301.15 322.1 300.3 324.05 298.45 324.652734375 297.8974609375 325.5 297.25 326.463671875 295.7283203125 326.8 295.35 327.9 294.1 329.15 293.95 329.85 293.85 331.1 294.15 332.5 294.5 333.1 294.5 334.1326171875 294.46875 335.05 293.8
L 336.55 292.3
Q 337.21953125 291.3599609375 338.2 289.55 340.3240234375 285.64765625 346.1 278.95 346.4693359375 278.2611328125 346.75 277.8 347.55 276.55 348.45 276.1 349.31171875 275.651953125 350.8 275.8 350.8962890625 275.7951171875 351 275.8 351.1 275.8 352.2 275.95 352.95 276.05 353.4 275.85 353.944140625 275.6234375 354.3 275 354.3685546875 274.8861328125 354.4 274.75 354.71171875 274.0923828125 354.8 273.1 355.05 269.6 355.25 267.8 355.55 264.75 356.2 262.6 357.0861328125 259.8923828125 358.8 258 359.5044921875 255.825390625 360.65 255.1 362.35 253.9 364.65 255 364.8994140625 255.124609375 365.1 255.25 365.6859375 255.3642578125 366.15 255.6 365.5341796875 234.5748046875 361.55 213.8 359.5 203 356.05 189.75 353.9 181.65 349.4 166
L 337.9 125.7
Q 335.4 117.2 334.5 114.55 333.8 112.45 332.7 111.9
M 327.35 264.6
Q 328.7 265.65 328.75 265.7 329.5 266.65 329.5 268.4 329.5 269.6 329.1 270.55 328.6 271.9 327.25 272.9 325.75 274.1 323.85 274.55 321.9 274.95 320.1 274.4 318.25 273.85 316.95 272.35 315.65 270.8 315.4 268.95 315.2 267.05 316.2 265.3 317.25 263.55 319.05 262.9 319.95 262.6 322.25 262.5 323.55 262.5 324 262.55 325 262.65 325.65 263.1 326.3 263.5 327.35 264.6
M 271.1 264.55
Q 271.7 264.85 272.05 265.45 272.4 266.1 272.2 266.65 273 267.2 273.3 268.15 273.65 269.1 273.45 270.1 273 271.95 271.15 273.05 269.4 273.95 267.4 273.8 264.15 273.6 263.1 271.45 262.9 270.95 262.7 269.95 262.5 268.95 262.6 268.45 262.75 267.65 263.8 266.5 265.55 264.55 266.95 264.2 267.3 264.1 268.65 264.1 270.45 264.2 271.1 264.55
M 290.65 233.3
Q 291.6 233.75 292.2 234.75 293.75 237.15 292.85 239.8 291.95 242.45 289.35 243.5 287.9 244.05 285.95 243.95 282.25 243.8 280.05 241.8 280.0275390625 241.7794921875 280 241.75 278.48203125 240.8236328125 278.25 239.2 278.181640625 238.7728515625 278.2 238.35 278.0357421875 237.083203125 278.5 236 279.4 234 282.1 232.8 284.6 231.65 286.6 232.1 287.4 232.3 289 232.9 289.55 233.05 290.65 233.3 Z"/>
</g>
</defs>

<g transform="matrix( 1, 0, 0, 1, 0,0) ">
<use xlink:href="#Layer0_0_FILL"/>
</g>
</svg>
